<svg width="582px" height="582px" viewBox="0 0 582 582" xmlns="http://www.w3.org/2000/svg"><path d="m273.48 0h35.03c66.83 4.58 131.74 32.14 180.8 77.86-5.23 2.89-11.21 1.46-7.59 8.01-5.05-.44-7.62 3.26-2.58 6.02 5.66 8.36-7.53 8.41-11.44 13.19-4.46 1.1-4.32-3.38-6.07-5.82-10.98-1.98-22.09-3.85-33.2-4.86-11.2-8.46-24.27.46-36.76-.76-6.37 3.41-13.66 4.42-19.87-.27 8.24-.94-6.98-5.6-9.86-1.44-3.38 7.47-13.83 4.71-19.21 10.77-3.88-.37-12.22.27-5.58-2.79-10.57-1.93-23.17-3.47-34.86-4.4-6.47 2.74-16.98 5.04-21.82 3.89 3.06-3.62-.98-1.98-3.49-1.44 2.83-3.67-7.95-.79-6.66-6.85-3.92-9.71 7.72-9.23 12.76-5.06 9.25-5.52 4.42-20.26-4.35-23.8-7.25-9.28 5.32-21.33 2.13-31.87.22-4.32-6.01-7.63-9.22-4.54-1.73-.76-3.48-1.5-5.22-2.24-9.92-10.19-26.28-9.02-39.04-5.19-8.95 2.97-4.95 17.72-12.98 19.42-7.39-.76-5.59-15.09-14.21-13.94-.81 4.28-11.28 11.57-16.32 6.23-3.18-2.83-7.88-2.29-11.19-4.88 31.6-14.69 66.18-22.19 100.8-25.24m84.96 22.53c-4.53-.7-5.47 4.81-9.53 5.36-8.61.01-2.65 11.61-.25 15.47 13.68 5.19 30.35 5.81 40.2-6.68-.51-14.23-18.95-14.61-30.42-14.15z" fill="#424341"/><path d="m227.38 18.41c12.76-3.83 29.12-5 39.04 5.19-12.16-3.67-25.38-3.27-33.25 6.33-.59 20.88 34.42 25.1 40.6 5.86 2.31-3.41-.83-6.86-2.13-9.95 3.21-3.09 9.44.22 9.22 4.54 3.19 10.54-9.38 22.59-2.13 31.87 8.77 3.54 13.6 18.28 4.35 23.8-5.04-4.17-16.68-4.65-12.76 5.06-1.29 6.06 9.49 3.18 6.66 6.85-3.84.42-13.74.75-7.01 5.05-8.3 4.95-19.16-2.2-25.75 4.36-7.89.24-10.46-5.26-1.96-7.36-18.86 3.69-37.12-7.39-56.3-5.38-3.69-.7-13.55 1.1-4.71 1.73-5.1 2.55-10.81.38-16.2 1.1-6.42.49-5.59-11.25.76-10.91 8.85 3.12 13.16-10.33 5.91-14.27-6.53-6.18-12.92 2.28-19.96.21-14.57 2.1-17.31-24.31-2.59-25.26.67-4.86 4.23-8.99 9.83-7.15 7.72 2.21 5.28-6.84 5.86-11.25 2.6-1.22 5.21-2.39 7.82-3.59 3.31 2.59 8.01 2.05 11.19 4.88 5.04 5.34 15.51-1.95 16.32-6.23 8.62-1.15 6.82 13.18 14.21 13.94 8.03-1.7 4.03-16.45 12.98-19.42z" fill="#25463d"/><path d="m233.17 29.93c7.87-9.6 21.09-10 33.25-6.33 1.74.74 3.49 1.48 5.22 2.24 1.3 3.09 4.44 6.54 2.13 9.95-6.18 19.24-41.19 15.02-40.6-5.86z" fill="#2d6541"/><path d="m358.44 22.53c11.47-.46 29.91-.08 30.42 14.15-9.85 12.49-26.52 11.87-40.2 6.68-2.4-3.86-8.36-15.46.25-15.47 4.06-.55 5-6.06 9.53-5.36z" fill="#604145"/><path d="m62.71 110.5c27.25-34.41 62.43-62.93 102.15-81.67-.58 4.41 1.86 13.46-5.86 11.25-5.6-1.84-9.16 2.29-9.83 7.15-14.72.95-11.98 27.36 2.59 25.26 7.04 2.07 13.43-6.39 19.96-.21 7.25 3.94 2.94 17.39-5.91 14.27-6.35-.34-7.18 11.4-.76 10.91-4.77-.43-9.53.9-10.98 5.7-5.85 3.41-13.22.44-19.65 1.46-4.39 7.27-12.93 15.83-21.8 11.7-4.76-3.53-1.26 3.32-.56 5.74-7.35 2.61-4.61-8.65-12.87-2.88-7.96 4.74-22.4.69-21.63 14-1.46-3.95-5.06-6.26-8.03-8.96.59-5.41-.25-12.61-6.82-13.72z" fill="#383146"/><path d="m481.72 85.87c-3.62-6.55 2.36-5.12 7.59-8.01 45.26 42.67 77.48 99.71 87.83 161.25-6.96-11.72-19.79-16.2-32.94-15.02-6.47-6.06 3.65-7.31 8.1-10.97 6.49-9.68-12.15-8.92-16.92-15.52-7.41-4.82 5.71-14.24-1.95-18.95-7.72-2.09-13.73-8.08-17.57-14.64 9.66-8.93-4.47-22.64-15.42-24.29-13.68-3.91 8.34.03 2.11-6.21-4.02-3.21 1.25-11.38-6.21-13.69-1.01-6.34-9.42-2.74-13.93-4.51-4.03-1.89-8.27-.78-12.36.42-1.86-2.93-.57-4.29 2.76-3.83-1.68-2.29-3.37-4.58-5.11-6.82 3.91-4.78 17.1-4.83 11.44-13.19-5.04-2.76-2.47-6.46 2.58-6.02z" fill="#3e4059"/><path d="m361.94 91.93c2.88-4.16 18.1.5 9.86 1.44 6.21 4.69 13.5 3.68 19.87.27 12.49 1.22 25.56-7.7 36.76.76 11.11 1.01 22.22 2.88 33.2 4.86 1.75 2.44 1.61 6.92 6.07 5.82 1.74 2.24 3.43 4.53 5.11 6.82-3.33-.46-4.62.9-2.76 3.83 4.09-1.2 8.33-2.31 12.36-.42 4.51 1.77 12.92-1.83 13.93 4.51 1.42 11.9-11.15 7.24-16.83 3.76-5-1.9-10.41-2.6-15.73-2.39 2.34 2.88 8.87 1.39 7.74 6.54 3.08 1.26 11.64-.12 6.66 4.25-12.78-7.75-26.68-4.1-40.57-4.63 2.23 4.68-9.05 11.18-6.08 1.88-.7-6.27 9.11-5.28 12.73-6.86.52-3.66 2.46-5.46 6.71-4.64.25-6.73-8.93-1.85-13.07-2.58-13.24-5.67-26.85.76-40.04 3.25 4.36 5.53 15.91.71 17.26 8.44-6.48 1.75-16.2-2.16-21.45 3.14 9.39 8.47 25.09 1.5 36.4 7.29-10.37 5.06-21.11 14.03-32.77 9.97-2.11-.24-15.88 3.64-8.46 5.84 5.23.59 10.12 2.46 15.01 4.29-1.31-.78-2.15-3.51.13-3.23 7.25.55 13.5 3.87 19.88 7.02 5.04 3.24-10.07-.28-4.16 3.08 9.61 7.76-15.77 3.19-11.85 10.86 4.48 3.36-1.4 6.62-2.45 10.23-1.69 14.56 12.12 24.18 18.49 35.8 2.26 4.88 7.09 7.56 11.98 9.2 9.95 6.27 22.28 6.24 32.57 11.64-10.04 3.32 4.93 7.72 8.53 10.1 10.1 2.32 18.38-8.08 23.82-15.28 1.8 2.7 2.77 5.83 3.29 9 .29 4.62.59 9.4 2.66 13.61 2.8-6.59 14.73-5.16 15.86 2.04 2.05 13.73 4.9 28.1.46 41.66-4.1 8.8-6.57 18.46-7.25 28.13-.44-3.34-.85-6.64-.88-9.99 5.11-15.99 12.1-33.48 6.57-50.26 1-6.43-.77-17.42-10.13-13.72-4.95 2.51-3.49 8.93-3.16 13.41 2.75 5.49 6.7-3.15 10.74-2.81 1.03 3.07-.68 14.39-5.65 11.88-6.1-5.96-3.89 14.31-7.05 7.32 1.6-14.63-.93-29.4-4.87-43.42-5.02.42-6.39 9.77-11.87 11.86-10.09 3.28-14.49 14.7-25.29 16.77-3.85 2.73-3.43-3.68-5.89-4.62-10.55 1.35-19.76-7.68-29.76-2.01-10.06 4.46-18.36-11.42-5.82-14.81 6.17-8.71 18.21-5.74 25.63-9.87-22.71-10.81-42.73-29.75-49.43-54.85-.43-3.95-8.09-10.89-1.37-11.33-.65-1.65-2.19-3.86.82-3.29 4.23-2.83-10.17-10.38 1.63-7.63 3.65-1.87-3.41-6.74-5.92-6.13-8.41-5.81-17.82.33-26.01-5.78-12.51-6.57-26.7-1.55-39.8-1.93-12.02.71-21.96 15.76-34.46 9.87-2.13-.75-4.5-.15-6.71-.32-4.36-3.92 7.31-4.84.49-5.05-6.88 2.83-9.85-5.77-6.59-10.4 3.74.8 6.33-1.34 6.62-5.01-3.82-.12-17-2.37-9.41-7.09-8.03-4.25 3.55-5.42 5.14-7.71-13.16-7.35 5.61-8.28 11.8-10.68-5.52-3.43-12.41.44-18.5-.76 9.9-5.52 23.16-9.2 33.71-3.29 10.86 4.74 25.1-1.77 33.9 7.78-6.39 10.7-17.97 3.07-27.79 6.01-9.22-.48-1.47 4.78 1.8 5.35 1.31 2.39-4.18 2.64-5.82 3.83 1.58 2.54-1.22 6.29.13 11.11 5.67 1.05 11.06-1.33 16.53-2.36 2.59-.74 5.06-1.88 7.69-2.49 13.65-4.41 24.03 13.49 37.19 6.27 4.63 1.08 13.67 3.83 6.25-1.74 2.51-3.19 19.56 6.38 19.6-3.03-3.91-4.4-24.66-3.59-11.32-8.31-11.7-3.49 2.87-4.75 7.77-8.19-3.14-.73-6.11-2.04-8.73-3.92 3.22-3.81 9.48-2.16 12.59-5.82-3.4-.78-6.9-.84-10.34-1.3 11.42-8.87 28.57-8.54 41.28-1.89 6.41 1.72 13.26 1.37 19.85.99 1.04-6.3-12.17.87-11.51-5.36 5.41-2.05 11.82.65 16.64-3.25-15.04-2.32-28.3-7.33-43.68-6.8-11.38 5.7-24.42.8-36.29 3.55 5.03 4.59-7.77 5.42-10.97 5.58-4.34-2.43-8.11 2.09-12.58 1.44-2.5-3.66-14.6 1.91-9.43-2.79 3.51-.79 3.11-1.34-.42-1.54 5.38-6.06 15.83-3.3 19.21-10.77z" fill="#583b3e"/><path d="m185.96 94.63c19.18-2.01 37.44 9.07 56.3 5.38-8.5 2.1-5.93 7.6 1.96 7.36-4.22 3.92-7.09 10.01-12.97 11.59-1.52-7.03-9.92-5.71-15.45-6.54-16.25 1.75-32.98-11.11-48.21-.57 7.97 1.3 17.16-1.59 24.66.84-7.47 1.43-15.61 1.84-22.55 5.03-3.96 2.54 1.35 4.55 3.74 5.33-2.56 2.22-6.58 2.76-8.36 5.77 1.82 2.31 2.15 4.91.08 7.19 4.74-2.21 19.56 1.47 11.3 7.55-8.63 3.81-19.14 2.71-28.45 4.65-.17 1.77.36 3.6 1.78 4.75 10.44-5.94 18.92 5.89 29.4 6.09-7.07 3.05-9.1 8.36-15.27 12.98-.97-2.16.09-3.71 1.89-4.89-11.79-2.27-17.97-16.09-30.81-15.21-12.02 4.23-24.85-.29-37.06 3.07 6.6-4.07 14.25-3.42 21.59-3.75 8.01-4.49 15.72-3.46 25.47-1.19-10.02-3.56-23.95-13.91-37.03-9.13-8.05.84-21.14 9.19-23.71-3.11-4.58-8.19-.21 6.9-5.8 7.64-6.04-1.36-20.57 8.87-18.93-2.79 1.64-3.23 4.41-5.66 6.76-8.36 3.64 4.85 8.91 4.85 11.27-1.13-.77-13.31 13.67-9.26 21.63-14 8.26-5.77 5.52 5.49 12.87 2.88-.7-2.42-4.2-9.27.56-5.74 8.87 4.13 17.41-4.43 21.8-11.7 6.43-1.02 13.8 1.95 19.65-1.46 1.45-4.8 6.21-6.13 10.98-5.7 5.39-.72 11.1 1.45 16.2-1.1-8.84-.63 1.02-2.43 4.71-1.73z" fill="#33446e"/><path d="m302.29 95.51c11.69.93 24.29 2.47 34.86 4.4-6.64 3.06 1.7 2.42 5.58 2.79 3.53.2 3.93.75.42 1.54-5.17 4.7 6.93-.87 9.43 2.79-1.65 4.19-5.64 6.8-8.29 10.33-8.8-9.55-23.04-3.04-33.9-7.78-10.55-5.91-23.81-2.23-33.71 3.29 6.09 1.2 12.98-2.67 18.5.76-6.19 2.4-24.96 3.33-11.8 10.68-1.59 2.29-13.17 3.46-5.14 7.71-7.59 4.72 5.59 6.97 9.41 7.09-.29 3.67-2.88 5.81-6.62 5.01-24.93-4.89-50.8-9.22-75.53-.98.91-4.46-5.18-.5-7.66-1.05 3.13-2.25 8.18-4.81-1.21-4.59 3.23-1.56 12.09-2.5 1.48-3.8-1.52-3.64 12.39-1.27 8.66-5.36-5.74 1.14-14.16.87-15.58 7.96-8.26 4.27 5.95-15.62 5.91-10.18-6.16 4.72 6.78 2.13 2.31-1.99 3.67 1.26 15.41-7.69 10.72-1.11 4.28-.83 16.82-2.07 10.68 4.11 3.9-2.15 6.85-5.58 10.44-8.17 5.88-1.58 8.75-7.67 12.97-11.59 6.59-6.56 17.45.59 25.75-4.36-6.73-4.3 3.17-4.63 7.01-5.05 2.51-.54 6.55-2.18 3.49 1.44 4.84 1.15 15.35-1.15 21.82-3.89z" fill="#3e7649"/><path d="m412.42 96.46c15.38-.53 28.64 4.48 43.68 6.8-4.82 3.9-11.23 1.2-16.64 3.25-.66 6.23 12.55-.94 11.51 5.36-6.59.38-13.44.73-19.85-.99-12.71-6.65-29.86-6.98-41.28 1.89 3.44.46 6.94.52 10.34 1.3-3.11 3.66-9.37 2.01-12.59 5.82 2.62 1.88 5.59 3.19 8.73 3.92-4.9 3.44-19.47 4.7-7.77 8.19-13.34 4.72 7.41 3.91 11.32 8.31-.04 9.41-17.09-.16-19.6 3.03 7.42 5.57-1.62 2.82-6.25 1.74-13.16 7.22-23.54-10.68-37.19-6.27 11.97-1.96 24.41-1.9 36.04 1.16-.16-2.87-3.46-4.83-4.99-7.23 3.11-3.31 11.06-2.55 12.18-7.73-7.15-.04-15.18 5.99-21.59 1.98 1.24-1.33 5.42-1.6 5.13-2.92-20.52 1.41 12.57-16.99.15-13.19-11.44 9.39-23.6 16.54-38.61 19.37-9.91 4.13-4.55 11.53 4 11.05-5.47 1.03-10.86 3.41-16.53 2.36-1.35-4.82 1.45-8.57-.13-11.11 1.64-1.19 7.13-1.44 5.82-3.83-3.27-.57-11.02-5.83-1.8-5.35 9.82-2.94 21.4 4.69 27.79-6.01 2.65-3.53 6.64-6.14 8.29-10.33 4.47.65 8.24-3.87 12.58-1.44 3.2-.16 16-.99 10.97-5.58 11.87-2.75 24.91 2.15 36.29-3.55z" fill="#7e4644"/><path d="m167.59 111.85c15.23-10.54 31.96 2.32 48.21.57 5.53.83 13.93-.49 15.45 6.54-3.59 2.59-6.54 6.02-10.44 8.17 6.14-6.18-6.4-4.94-10.68-4.11 4.69-6.58-7.05 2.37-10.72 1.11 4.47 4.12-8.47 6.71-2.31 1.99.04-5.44-14.17 14.45-5.91 10.18 1.42-7.09 9.84-6.82 15.58-7.96 3.73 4.09-10.18 1.72-8.66 5.36 10.61 1.3 1.75 2.24-1.48 3.8 9.39-.22 4.34 2.34 1.21 4.59 2.48.55 8.57-3.41 7.66 1.05 24.73-8.24 50.6-3.91 75.53.98-3.26 4.63-.29 13.23 6.59 10.4 6.82.21-4.85 1.13-.49 5.05-2.75-.76-5.3-.4-4.9 3-3.82-.08-9.55-3.94-10.79 1.65-9.3-4.65-16.83-14.3-28.54-14.13-8.35-3.64 7.23 7.78-5.82 3.72-12.35-3.1-24.86-.82-35.89 5.22-7.12-1.06-12.52 7.5-19.57 2.93.35-2.05 0-3.48-2.43-2.91-10.48-.2-18.96-12.03-29.4-6.09-1.42-1.15-1.95-2.98-1.78-4.75 9.31-1.94 19.82-.84 28.45-4.65 8.26-6.08-6.56-9.76-11.3-7.55 2.07-2.28 1.74-4.88-.08-7.19 1.78-3.01 5.8-3.55 8.36-5.77-2.39-.78-7.7-2.79-3.74-5.33 6.94-3.19 15.08-3.6 22.55-5.03-7.5-2.43-16.69.46-24.66-.84z" fill="#3b4c3b"/><path d="m363.75 110.88c12.42-3.8-20.67 14.6-.15 13.19.29 1.32-3.89 1.59-5.13 2.92 6.41 4.01 14.44-2.02 21.59-1.98-1.12 5.18-9.07 4.42-12.18 7.73 1.53 2.4 4.83 4.36 4.99 7.23-11.63-3.06-24.07-3.12-36.04-1.16-2.63.61-5.1 1.75-7.69 2.49-8.55.48-13.91-6.92-4-11.05 15.01-2.83 27.17-9.98 38.61-19.37z" fill="#a13e43"/><path d="m0 273.65c4.52-58.96 25.55-116.83 62.71-163.15 6.57 1.11 7.41 8.31 6.82 13.72 2.97 2.7 6.57 5.01 8.03 8.96-2.36 5.98-7.63 5.98-11.27 1.13-2.35 2.7-5.12 5.13-6.76 8.36-1.64 11.66 12.89 1.43 18.93 2.79 5.59-.74 1.22-15.83 5.8-7.64 2.57 12.3 15.66 3.95 23.71 3.11 13.08-4.78 27.01 5.57 37.03 9.13-9.75-2.27-17.46-3.3-25.47 1.19-17.1-7.06-29.46 8.66-45.48 9.71-8.57-2.7-20.1.12-27.06 4.1 7.89 8.14-8.78 14.66-15.51 11.5-8.03-1.86.54 4.06-1.21 8.83-6.14 6.37-9.03 15.63-10.11 24.43 4.68 3.09 10.38 5.82 15.65 3.51 1.12 6.6.12 14.05 7.97 15.95-2.01 9.45 9.51 16.1 7.47 25.61-6.99-1.97-13.74 2.86-20.06-1.39-14.5.81-8.48 19.17-5.75 28.1 2.55 9.84-13.48 11.92-8.63 21.48 5.46 5 1.67 13.27.02 19.68-2.95-4.06-3.33 3.82-.09 4.51 8.07 7.33 22.55-2.5 27.24 8.77 3.39 2.77 11.94 2.93 9.17 9.03 3.44 7.7 7.7 18.29 18.8 11.78 4.19 12.62 12.96 26.31 26.25 29.96 14.32.4 17.88 20.39 32.5 13.29.77 5.18 3.28 9.19 8.65 6.13 8-3.62 1.53 13.32 8.05 8.13 7.79-7.72 18.67 2.75 26.4-5.54 8.14-9.24 19.03 8.84 26.25-4.05.45 2.53.94 5.05 1.33 7.59-.14.35-.42 1.04-.56 1.39-1.17 2.67-1.61 5.52-2.03 8.41-3.76-10.79-20.61 1.82-24.05-7.21-4.66-.4-5.06 10.54-8.97 5.26-3.02-6.69-4.94 2.65-8.08-1.92-4.4-4.16-5.84 6.75-11.58 4.86 1.06 7.89-2.79 5.38-2.16-1.09-8.87 10.19 12.78 13.62 16.18 22.84-3.48.16-6.9.86-10.29 1.64-2.57.25-5.14.53-7.71.83-4.42-3.44 11.09-.23 6.79-5.24-11.23-12.64-26.72-20.72-39.59-31.57-9.76-5.26-11.85-20.55-22.9-22.16-1.67 15.31 4.04 30.63.98 45.94-8.75 13.31-26.26 8.16-39.67 10.37-1.05.35-2.08.74-3.1 1.18-26.58-41-40.36-89.11-44.64-137.52z" fill="#2e373e"/><path d="m397.86 118.4c13.19-2.49 26.8-8.92 40.04-3.25 4.14.73 13.32-4.15 13.07 2.58-4.25-.82-6.19.98-6.71 4.64-3.62 1.58-13.43.59-12.73 6.86-2.97 9.3 8.31 2.8 6.08-1.88 13.89.53 27.79-3.12 40.57 4.63 4.98-4.37-3.58-2.99-6.66-4.25 1.13-5.15-5.4-3.66-7.74-6.54 5.32-.21 10.73.49 15.73 2.39 5.68 3.48 18.25 8.14 16.83-3.76 7.46 2.31 2.19 10.48 6.21 13.69 6.23 6.24-15.79 2.3-2.11 6.21 10.95 1.65 25.08 15.36 15.42 24.29 3.84 6.56 9.85 12.55 17.57 14.64 7.66 4.71-5.46 14.13 1.95 18.95 4.77 6.6 23.41 5.84 16.92 15.52-4.45 3.66-14.57 4.91-8.1 10.97 13.15-1.18 25.98 3.3 32.94 15.02 2.98 11.23 3.07 22.94 4.86 34.37v35.04c-.53 4.21-.95 8.46-1.52 12.68-6.02-10.22-23.99-3.83-26.44 7.07-14.91-11.18-14.07 11.57-23.97 14.99-5.67 1.3-11.68 10.79-4.34 13.97 14.18 2.23 25.76 12.25 40.28 11.97-.67 4.51-2.43 9.66 1.16 13.37-1.23 4.74-3.04 9.29-4.92 13.8-4.29.76-21.45-4.82-13.67-7.58.9-4.45 8.26.28 8.94-4.3.45-3.3 4.3-6.75 2.3-9.87-11-1.05-19.99-8.79-31.74-7.86 4.43 3.83-4.34 3.87-6.73 4.59-.95 4.45-1.25 10.66-4.97 12.45 6.82 4.33 16.31 2.21 23.68 7.54-6.71 3.82-16.34 6.96-22.85 1.38-1.78.61-9.04-3.28-7.75 1.5-4.23-.55-8.71-4.72-12.61-1.53-2.94-5.92 9.69.05 8.98-6.65-2.97-8.17-12.13-16.93-3.97-25.22-.99-5.2-7.89.99-8.76 4.44-5.8 7.22-12.14 16.83-22.52 17.54.75 2.34 9.14 10.57 1.3 10.03-7.7-2.89-9.58 10.25-15.71 5.38.73 4.57-3.84 11.11-5.11 3.82 6.02 3.69.66-8.55 5.94-10.01 10.51-5.56 11.44-20 21-26.07 3.16-2.73 5.15 1.33 7.03 3.36 3.61-2.03 3.11-6.79 5.46-9.71 4.85-.63 5.72-5.75 7.65-9.39 1.99-9.65 12.65-2.09 16.55-9.54 1.93-2.75.99-6.29 1.12-9.44.68-9.67 3.15-19.33 7.25-28.13 4.44-13.56 1.59-27.93-.46-41.66-1.13-7.2-13.06-8.63-15.86-2.04-2.07-4.21-2.37-8.99-2.66-13.61 3 8.89 3.94-7.01 3.97-9.76 2.67-11.87-9.19-23.63-2.63-34.62-1.84-7.69 13.59 3.91 8.91-4.73-1.37-4.61-4.46-8.27-6.85-12.27-2.47-3.72 4.94-4.97 2.76-8.56-1.81-5.01-9.64-2.74-11.36-7.8-3.01-4 2.74-8.52-.92-12.01-9.85-7.3-16.03-19.42-28.2-23.51-3.55-1.49-8.59 3.27-3.68 5.41 1.87 2.26 9.99 2.41 6.71 6-8.06-1.42-17.17-3.71-21.12-11.62-3.9-3.81-7.3 4.99-5.12 8.27-13.43-.67-25.43 6.62-37.11 12.5 10.79 3.65 23.21 6.39 31.95 13.15.31 5.56-5.4 3.2-9.13 3.31.2 2.23 2.32 3.58 3.48 5.34-7.59 3.29-16.5-1.22-24.67-.97 1.77 4.15 10.85 9.84 5.2 14.3 2.88-7.6-10.34-.8-4.37 1.8-1.04 15.92 13.3 29.46 23.97 40.31-4.89-1.64-9.72-4.32-11.98-9.2-6.37-11.62-20.18-21.24-18.49-35.8 1.05-3.61 6.93-6.87 2.45-10.23-3.92-7.67 21.46-3.1 11.85-10.86-5.91-3.36 9.2.16 4.16-3.08-6.38-3.15-12.63-6.47-19.88-7.02-2.28-.28-1.44 2.45-.13 3.23-4.89-1.83-9.78-3.7-15.01-4.29-7.42-2.2 6.35-6.08 8.46-5.84 11.66 4.06 22.4-4.91 32.77-9.97-11.31-5.79-27.01 1.18-36.4-7.29 5.25-5.3 14.97-1.39 21.45-3.14-1.35-7.73-12.9-2.91-17.26-8.44z" fill="#3e3b44"/><path d="m446.55 140.59c-2.18-3.28 1.22-12.08 5.12-8.27 3.95 7.91 13.06 10.2 21.12 11.62 3.28-3.59-4.84-3.74-6.71-6-4.91-2.14.13-6.9 3.68-5.41 12.17 4.09 18.35 16.21 28.2 23.51 3.66 3.49-2.09 8.01.92 12.01 1.72 5.06 9.55 2.79 11.36 7.8 2.18 3.59-5.23 4.84-2.76 8.56 2.39 4 5.48 7.66 6.85 12.27 4.68 8.64-10.75-2.96-8.91 4.73-6.56 10.99 5.3 22.75 2.63 34.62-.03 2.75-.97 18.65-3.97 9.76-.52-3.17-1.49-6.3-3.29-9-5.44 7.2-13.72 17.6-23.82 15.28-3.6-2.38-18.57-6.78-8.53-10.1-10.29-5.4-22.62-5.37-32.57-11.64-10.67-10.85-25.01-24.39-23.97-40.31-5.97-2.6 7.25-9.4 4.37-1.8 5.65-4.46-3.43-10.15-5.2-14.3 8.17-.25 17.08 4.26 24.67.97-1.16-1.76-3.28-3.11-3.48-5.34 3.73-.11 9.44 2.25 9.13-3.31-8.74-6.76-21.16-9.5-31.95-13.15 11.68-5.88 23.68-13.17 37.11-12.5m20.73 24.27c3.73 13.47-7.99-.8-13.62 1.8-1.88 4.08 3.24 7.32 4.05 11.13-1.16 1.8-5.22 7.38-.52 5.43.03 5.66-7.89 3.99-11.23 1.82-5.27-4.3-11.4-1.39-16.69-3.91-1.07 1.54.49 14.58-4.34 10.14-11.1-.5-1.08 16.22 7.12 11.56-.78 5.84 9.62 4.68 10.7 10.48 9.5 4.42 4.36 23.29 18.37 20.58 10.74 4.63 22.01 14.62 32.74 3.89-4.17-4.71-4.06-11.81-8.81-15.89.63-5.34 3.01 1.31 4.97 1.11-1.29-4.62-.12-11.06-2.1-14.89-8.16-.77-.94-9.38-1.63-14.04 5.89-2.78 3.97 6.12 8.85 7.8 4.42-5.65-11.42-17.39-1.23-20.88.64 4.05 5.92 11.76 11.86 10.85 2.71-5.52-5.67-9.83-9.12-13.43-6.66-9.22-17.45-16.2-29.37-13.55z" fill="#2f3c40"/><path d="m328.3 150.02c13.1.38 27.29-4.64 39.8 1.93 8.19 6.11 17.6-.03 26.01 5.78 2.51-.61 9.57 4.26 5.92 6.13-11.8-2.75 2.6 4.8-1.63 7.63-3.01-.57-1.47 1.64-.82 3.29-6.72.44.94 7.38 1.37 11.33 6.7 25.1 26.72 44.04 49.43 54.85-7.42 4.13-19.46 1.16-25.63 9.87-12.54 3.39-4.24 19.27 5.82 14.81 10-5.67 19.21 3.36 29.76 2.01 2.46.94 2.04 7.35 5.89 4.62 10.8-2.07 15.2-13.49 25.29-16.77 5.48-2.09 6.85-11.44 11.87-11.86 3.94 14.02 6.47 28.79 4.87 43.42 3.16 6.99.95-13.28 7.05-7.32 4.97 2.51 6.68-8.81 5.65-11.88-4.04-.34-7.99 8.3-10.74 2.81-.33-4.48-1.79-10.9 3.16-13.41 9.36-3.7 11.13 7.29 10.13 13.72 5.53 16.78-1.46 34.27-6.57 50.26-3.18 1.66-5.83-4.48-7.48.15-3.54 6.8-10.58-2.93-15.48 1.59 2.87-23.45 18.67-47.62 8.87-71.15-4.87 3.84-7.44 10.67-14.13 11.9-12.61 4.03-21.64 20.37-36.41 13.98-3.83-2.18 3.54-4.6.68-7.59-7.98-6.86-22.58-5.3-30.02.27-5.18-4.32-9.66-13.13-4.65-19.11 5.22-7.15 14.59-8.72 22.03-12.49-14.42-7.94-24.71-20.73-34.79-33.37-9.33-14.51-10.87-34.64-26.75-44.23-7.89-6.63-18.41-11.87-28.78-8.26-16.16-3.17-35.07 1.6-45.23 15.11-2.32-.28-4.41-1.47-6.63-2.1-1.04-1.88-2.67-3.75-2.32-6.05 12.5 5.89 22.44-9.16 34.46-9.87z" fill="#893a41"/><path d="m237.08 153.81c13.05 4.06-2.53-7.36 5.82-3.72 11.71-.17 19.24 9.48 28.54 14.13.19 2.74 2.18 4.09 4.48 5.1-.2 3.57-4.42 5.3-5.36 8.74-1.67-1.91-3.92-3.09-6.2-4.08-2.05-2.35-3.57-5.95-7.13-6.11-14.31-15.46-41.5-12.33-57.3-.93-6.09 10.08-15.92 17.65-16.91 30.15 5.79-2.45 3.53 12.5 7.19 18.6-.57.33-1.71.98-2.28 1.31-5.97-11.46-17.84-28.25-4.72-38.82 6.73-4.89-11.65-8.09-.42-10.21 7.28 10.29 13.58-3.44 18.4-8.94 11.03-6.04 23.54-8.32 35.89-5.22z" fill="#419b39"/><path d="m74.05 160.96c16.02-1.05 28.38-16.77 45.48-9.71-7.34.33-14.99-.32-21.59 3.75-9.77 4.98-20.86 10.37-31.73 7.14-9.4 3.16-12.83 13.28-20.63 18.53-9.86 1.93-12.52 11.23-12.53 20.52 11.41-.11 8.91-21.19 20.61-16.59 2.45.54 4.74-.77 7.09-1.22 2.78 10.57 1.24 22.4-2.7 31.54.44 7.5 11.71-.64 11.44 6.28-3.14 8.75-3.2 18.11-4.92 27.17 1.56-5.7-6.23-13.44-8.88-5.52-5.39-9.64-2.04 6.21.96 6.95 2.71-8.78 7.64 2.15 3.86 6.37 3.54 3.31 2.25 11-3.65 8.29 5.13-2.17-2.05-8.84-5.61-9.57 2.04-9.51-9.48-16.16-7.47-25.61-7.85-1.9-6.85-9.35-7.97-15.95-5.27 2.31-10.97-.42-15.65-3.51 1.08-8.8 3.97-18.06 10.11-24.43 1.75-4.77-6.82-10.69 1.21-8.83 6.73 3.16 23.4-3.36 15.51-11.5 6.96-3.98 18.49-6.8 27.06-4.1z" fill="#33325e"/><path d="m348.02 152.93c10.37-3.61 20.89 1.63 28.78 8.26 15.88 9.59 17.42 29.72 26.75 44.23 10.08 12.64 20.37 25.43 34.79 33.37-7.44 3.77-16.81 5.34-22.03 12.49-5.01 5.98-.53 14.79 4.65 19.11 7.44-5.57 22.04-7.13 30.02-.27 2.86 2.99-4.51 5.41-.68 7.59 14.77 6.39 23.8-9.95 36.41-13.98 6.69-1.23 9.26-8.06 14.13-11.9 9.8 23.53-6 47.7-8.87 71.15-9.26 4.21-9.82 15.98-7.95 24.67-6.85-.36-1.43 8.66-6.36 11.06-6.18 3.25-10.5 8.27-11.77 15.11-12.18-6.53-9.01 9.85-18.05 11.07-3.89 7.23-10.24 16.83-19.75 16.4-8.21 1.49-16.11 7.7-23.19-.3-7.77 3.46-19.03 10.02-26.69 4.7-4.65 5.71-7.78 3.34-8.53-3.27-9.08 4.81-3.38-10.18-8.54-6.4.11 7.53-2.12-5.27-5.53.55-3.04 5.87-3.8-3.75-7.16 2.01-2.21 3.42-4.4-7.11-6.77-2.01-1.29 4.92-3.72-1.57-5.41-3.21-.63-3.68-1.6-10.59 4.83-8.44 1.55 2.22 3.88 1.48 5.88.35 8.27-9.42 17.69-1.33 22 6.73 4.13 14.78 22.88 10.51 32.91 3.88 12.73-.36 34.11 4.91 37.89-11.66-14.72-4.07-33.86-1.05-46.54-12.41-1.54-1.4-3.96-5.93-.44-6.04 10.99-1.47 22.2-.78 32.57-5.46 2.57-3.92-4.39-3.43-7.04-3.71-14.42.44-29.58-4.18-43.51 1.27-5.95-6.39 7.5-.66 5.28-7.6 11.46 5.89 6.38-10.95 9.96-17.23.88-3.01 2.51-1.4 3.01.84-5.64 12.85 15.9 10.6 10.68-.67-1.19-3.09-1.45-6.32-.04-9.38 9.49 3.41 16.08 10.96 19.21 20.21 10.2 6.59-4.15 6.03-10.32 6.5-2.94.48-11.2 5.5-.74 3.59 15.05 2.03 32.81.85 44.32 12.15 1.75-1.61-.65-3.63-1.09-5.36 17.31 3.18 12.05-23.09 16.24-33.48 9.73-8.4 13.37-21.41 19.88-32.2 2.32-7.93 5.8-27.29-8.61-22.68-10.46 8.58-23.61 13.16-36.77 7.66-6.46-1.74-12.81-4.42-19.63-4.23-3.78 7.94-.2 17.29 2.98 24.97-9.64 1.93-15.33-9.01-12.48-17.16 1.4-13.4-6.37-25.33-6.63-38.63 5.17-2.41 15.21-4.65 16.34-10.58-13.31-13.59-28.14-26.78-33.9-45.65-7.99-10.24-12.84-23.43-24.32-30.58-1.4 5.5-11.23-1.3-16.3-2.26-15.61-3.21-38.89-1.92-45.47 15.35-7.37 7.99-9.88 18.28-13.37 28.17 7.9-.82 3.71 9.78 4.61 14.6-.8-.79-1.59-1.6-2.37-2.41-8.87-10.25-2.59-27.67-12.71-35.33-.14-8.09 5.75-13.93 13.58-10.54 2.22.63 4.31 1.82 6.63 2.1 10.16-13.51 29.07-18.28 45.23-15.11z" fill="#aa3c3f"/><path d="m97.94 155c12.21-3.36 25.04 1.16 37.06-3.07 12.84-.88 19.02 12.94 30.81 15.21-1.8 1.18-2.86 2.73-1.89 4.89-1.63 2.04-3.24 4.11-4.64 6.33-2.89-4.02-7.13-7.34-8.52-12.21-10.61-6.08-24.38-10.39-37.75-10.18-12.09 1.94-28.01 3.07-31.57 17.49-7.76 6.82-11.38 17.21-12.02 27.01 9.01 2.69.34 12.14 5 17.77-11.22 21.1-5.8 46.76-6.44 69.77-5.92.84-2.41-8.68-3.35-11.7 1.76-9.65-11.13-10.77-17.5-11.33-7.62 2.93-6.5 13.15-4.61 19.45-6.39-14.49 23.16-8.2 12.34.4-4.1 3.43-3.25 9.73-6.72 13.34-2.28-2.09-2.34-9.2-5.76-8.58-1.06 19.98 13.73 36.75 17.04 56.05 2.74 6.76 10.05 5.21 14.64 1.36 6.44 5.04 5.85 16.19 11.87 20.92 3.61-3.08 7.03.78 9.47 3.35-2.2-8.18 10.18-9.37 9.67-.37 10.36-2.98 6.31 12.61 15.44 9.77 10.11-11.32 23.65 7.79 27.78 17.01 8.76 6.21 21.35 4.46 29.88-2.46 5.86-3.57 16.11 5.18 18.75-3.29 1.03-2.56 1.22 1.33 1.72 2.28.5 2.21 1.1 4.41 1.37 6.67-4.73-2.42-9.35 6.24-13.31.5-8.62-6.99-16.12 7.6-25.54 4.56-6.72-.17-21.52-1.03-18.59-11.57-2.39-5.15-8.23-1.74-12.26-3.53-4.61-1.67-10.01 6.2-13.41 1.25-3.54-4.77-9.32-5.64-9.74-11.08-9.33 8.67-16.47-6.22-24.38-9.76-5.27-6.87-5.44-24.89-18.78-18.18-8.5-3.87-5.81-14.65-11.18-20.95-4.26-11.01-8.52-22.06-12.98-33.01-1-8.88.48-17.93-.63-26.83-.45-9.45 10.89-11.07 17.65-7.82 5.9 2.71 7.19-4.98 3.65-8.29 3.78-4.22-1.15-15.15-3.86-6.37-3-.74-6.35-16.59-.96-6.95 2.65-7.92 10.44-.18 8.88 5.52 1.72-9.06 1.78-18.42 4.92-27.17.27-6.92-11 1.22-11.44-6.28 3.94-9.14 5.48-20.97 2.7-31.54-2.35.45-4.64 1.76-7.09 1.22-11.7-4.6-9.2 16.48-20.61 16.59.01-9.29 2.67-18.59 12.53-20.52 7.8-5.25 11.23-15.37 20.63-18.53 10.87 3.23 21.96-2.16 31.73-7.14z" fill="#2a4489"/><path d="m306.42 171.45c6.58-17.27 29.86-18.56 45.47-15.35 5.07.96 14.9 7.76 16.3 2.26 11.48 7.15 16.33 20.34 24.32 30.58-7.11.97-11.45-11.05-15.99-16.39-12.88-12.54-31.79-12.57-48.51-13.54-3.23 1.99 1.65 6.75 1.77 9.79-2.85 1.74-6.35 2.6-6.53 6.58-7.57.34-18.24.82-15.5 11.34-12.84 4.32-6.64 19.6-1.65 28.26 8.86 20.49 34.01 21.28 53.14 24-7.28 3.37-15.39 2.91-23.12 4.25.66-1.16 3.6-2.88-.06-3.32-10.2-6.71-26.36-8.09-31.36-20.71-.46-3.87-5.52-1.72-7.04-4.98-.9-4.82 3.29-15.42-4.61-14.6 3.49-9.89 6-20.18 13.37-28.17z" fill="#db323f"/><path d="m81.44 173.46c3.56-14.42 19.48-15.55 31.57-17.49 13.37-.21 27.14 4.1 37.75 10.18 1.39 4.87 5.63 8.19 8.52 12.21 4.58 6.74 12.57 11.51 13.1 20.42.23 6.84-4.44 12.51-4.19 19.3 3.33 7.68-3.56 5.01-4.52 1.93 3.07-4.99-.06-27.09-7.68-17.7.71-6.53 3.47-12.69 3.98-19.23-2.42-4.88-18.88-3.82-10.73-10.89-2.34.57-4.66 1.29-7.04 1.73-3.47-10.61-20.61-15.86-31.55-11.31-7.05 5.59-17.38 3.5-23.85 10.21-4.6 9.39-18.06 19.11-7.88 29.31.74 10.97-.73 22.15-7.52 31.31-1.79 16.95-2.84 34.72-.58 51.58-1.95 7.4-2.93 16.76 1.84 23.34 4.06 15.52.68 34.18 12.61 47.07-.97-3.97 1.46-11.29 5.15-4.96.37 6.45 6.86 6.11 11.45 4 3.78 3.87 7.98 7.44 12.79 9.96 12.15 3.92 7.35-14.2 15.91-18.37 4.25-2.48-4.46-1.8-.12-3.65 9.47-2.02 19.14-3.84 28.07-7.71 2.81-7.58-7.09-11.79-8.38-17.53-.19 7.93-10.6 14.23-15.84 17.43 2.91-7.44 5.56-16.21 10.09-23.25 3.71-5.81 10.71 4.15 13.04-2.83.58 1.17 1.16 2.34 1.72 3.52.13.55.38 1.64.51 2.19.15 3.17.98 6.23 2.96 8.73 5.02 7.5 7.29 16.29 9.14 25.01-4.74 2.19-10.05 5.03-15.35 3.73-8.92-13.43-33.84 4.98-25.3 17.11 10.99-4.36 19.95-14.29 32.86-12.9 7.52-1.84 14.83 2.75 22.19 1.1 3.26-.17 5.73 1.58 4.93 5.07-8.53 3.13-17.91.11-26.67 2.34-1.85 13.41 16.46 14.84 25.71 16.01 5.39-3.41 12.07 6.07 15.36 1.58 2.77.7 5.54 1.48 8.41 1.71 2.79 5.35-3.52 9.13-8.03 10.48-2.11-3.27-7.55-6.27-7.23.01-.5-.95-.69-4.84-1.72-2.28-2.64 8.47-12.89-.28-18.75 3.29-8.53 6.92-21.12 8.67-29.88 2.46-4.13-9.22-17.67-28.33-27.78-17.01-9.13 2.84-5.08-12.75-15.44-9.77.51-9-11.87-7.81-9.67.37-2.44-2.57-5.86-6.43-9.47-3.35-6.02-4.73-5.43-15.88-11.87-20.92-4.59 3.85-11.9 5.4-14.64-1.36-3.31-19.3-18.1-36.07-17.04-56.05 3.42-.62 3.48 6.49 5.76 8.58 3.47-3.61 2.62-9.91 6.72-13.34 10.82-8.6-18.73-14.89-12.34-.4-1.89-6.3-3.01-16.52 4.61-19.45 6.37.56 19.26 1.68 17.5 11.33.94 3.02-2.57 12.54 3.35 11.7.64-23.01-4.78-48.67 6.44-69.77-4.66-5.63 4.01-15.08-5-17.77.64-9.8 4.26-20.19 12.02-27.01z" fill="#2e47bd"/><path d="m199.93 166.94c15.8-11.4 42.99-14.53 57.3.93-10.86-3.1-21.65-1.62-32.57-4.39-2.19-8.72-11.94 3.65-9.1 7.03 6.34 2.95 8.38-6.39 14.29-1.36 3.08 6.23 13.68 9.95 9.84 18.49-9.33 7.06-17.15-7.64-26.49-4.35-4.17 1.31-9.01-1.58-12.76 1.15-4.22 7.6-10.26 14.28-8.73 23.05 2.8 12.88 12.96 23.82 26.19 26.62 15.02 6.14 31.01-.42 46.1.94.71-7.01-6.41-12.9-2.76-19.77 3.01-3.69-.3-10.09-4.51-6.87-10.37-5.36 3.93-16.49.38-25.55-2.6-4.7 5.68-5.19 7.25-8.88 2.28.99 4.53 2.17 6.2 4.08 3.66 7.04 11.56 11.11 12.87 19.53-2.26 11.59-3.27 23.45-1.54 35.18-7.59 6.02-1.67-13.56-8.63-7.61.08 5.59 1.15 11.18.63 16.78-5.92-.97-12.23.56-17.86-1.97-13.43-1.16-26.91 1.26-39.86-4.1-11.58-2.34-20.23-10.28-25.96-20.18-3.66-6.1-1.4-21.05-7.19-18.6.99-12.5 10.82-20.07 16.91-30.15z" fill="#53d52d"/><path d="m179.19 159.05c2.43-.57 2.78.86 2.43 2.91 7.05 4.57 12.45-3.99 19.57-2.93-4.82 5.5-11.12 19.23-18.4 8.94-11.23 2.12 7.15 5.32.42 10.21-13.12 10.57-1.25 27.36 4.72 38.82-.89.67-1.77 1.36-2.63 2.06-6.07-5.71-13.22-10.84-12.92-20.28-.53-8.91-8.52-13.68-13.1-20.42 1.4-2.22 3.01-4.29 4.64-6.33 6.17-4.62 8.2-9.93 15.27-12.98z" fill="#337e66"/><path d="m282.23 162.57c-.4-3.4 2.15-3.76 4.9-3 2.21.17 4.58-.43 6.71.32-.35 2.3 1.28 4.17 2.32 6.05-7.83-3.39-13.72 2.45-13.58 10.54 10.12 7.66 3.84 25.08 12.71 35.33-.14.6-.42 1.8-.56 2.4-6.49-3.52-5.93-12.27-11.3-16.62-1.31-8.42-9.21-12.49-12.87-19.53.94-3.44 5.16-5.17 5.36-8.74-2.3-1.01-4.29-2.36-4.48-5.1 1.24-5.59 6.97-1.73 10.79-1.65z" fill="#7f743c"/><path d="m329.78 168.8c-.12-3.04-5-7.8-1.77-9.79 16.72.97 35.63 1 48.51 13.54 4.54 5.34 8.88 17.36 15.99 16.39-1.22 4.73-11.2 5.52-3.52 11.11-.97 11.63 7.94 22.39 4.69 33.75-7.67 1.64-1.07-12.61-8.68-15.09-7.48 5.48 9.77 16.57-3.19 20.04-3.56 1.14-7.36 1.26-11.06 1.53-3.81-.68-7.66-1.06-11.51-1.3-19.13-2.72-44.28-3.51-53.14-24-4.99-8.66-11.19-23.94 1.65-28.26-2.74-10.52 7.93-11 15.5-11.34.18-3.98 3.68-4.84 6.53-6.58z" fill="#f0183d"/><path d="m215.56 170.51c-2.84-3.38 6.91-15.75 9.1-7.03 10.92 2.77 21.71 1.29 32.57 4.39 3.56.16 5.08 3.76 7.13 6.11-1.57 3.69-9.85 4.18-7.25 8.88 3.55 9.06-10.75 20.19-.38 25.55 4.21-3.22 7.52 3.18 4.51 6.87-3.65 6.87 3.47 12.76 2.76 19.77-15.09-1.36-31.08 5.2-46.1-.94-13.23-2.8-23.39-13.74-26.19-26.62-1.53-8.77 4.51-15.45 8.73-23.05 3.75-2.73 8.59.16 12.76-1.15 9.34-3.29 17.16 11.41 26.49 4.35 3.84-8.54-6.76-12.26-9.84-18.49-5.91-5.03-7.95 4.31-14.29 1.36z" fill="#3ee618"/><path d="m110.65 162.61c10.94-4.55 28.08.7 31.55 11.31 2.38-.44 4.7-1.16 7.04-1.73-8.15 7.07 8.31 6.01 10.73 10.89-.51 6.54-3.27 12.7-3.98 19.23-1.64 8.01-.81 16.99-5 24.24-1.67-8.65-4.55-11.89-3.25-19.96-2.5 4.01-2.3 9.37-5.6 12.85-1.79-5.22-7.76-10.49-12.97-6.13.01-3.56 7.72-8.58 1.41-9.01-9-11.34-24.41-8.5-36.65-13.39-8.83 2.38-4.83 14.96-9.91 20.3 2.89-7.2-1.09-5.6-5.1-9.08-10.18-10.2 3.28-19.92 7.88-29.31 6.47-6.71 16.8-4.62 23.85-10.21z" fill="#315de7"/><path d="m467.28 164.86c11.92-2.65 22.71 4.33 29.37 13.55 3.45 3.6 11.83 7.91 9.12 13.43-5.94.91-11.22-6.8-11.86-10.85-10.19 3.49 5.65 15.23 1.23 20.88-4.88-1.68-2.96-10.58-8.85-7.8.69 4.66-6.53 13.27 1.63 14.04 1.98 3.83.81 10.27 2.1 14.89-1.96.2-4.34-6.45-4.97-1.11 4.75 4.08 4.64 11.18 8.81 15.89-10.73 10.73-22 .74-32.74-3.89-14.01 2.71-8.87-16.16-18.37-20.58-1.08-5.8-11.48-4.64-10.7-10.48-8.2 4.66-18.22-12.06-7.12-11.56 4.83 4.44 3.27-8.6 4.34-10.14 5.29 2.52 11.42-.39 16.69 3.91 3.34 2.17 11.26 3.84 11.23-1.82-4.7 1.95-.64-3.63.52-5.43-.81-3.81-5.93-7.05-4.05-11.13 5.63-2.6 17.35 11.67 13.62-1.8z" fill="#1b3c41"/><path d="m392.51 188.94c5.76 18.87 20.59 32.06 33.9 45.65-1.13 5.93-11.17 8.17-16.34 10.58.26 13.3 8.03 25.23 6.63 38.63-2.85 8.15 2.84 19.09 12.48 17.16-3.18-7.68-6.76-17.03-2.98-24.97 6.82-.19 13.17 2.49 19.63 4.23 13.16 5.5 26.31.92 36.77-7.66 14.41-4.61 10.93 14.75 8.61 22.68-6.51 10.79-10.15 23.8-19.88 32.2-3.42-10.34-18.11-10.28-19.5 1.43-1.57 12.66-24.52 8.82-19.97-4.04 4.71-10.83-6.14-14.98-13.72-18.83-3.31 1.94-5.94 5.74-10.17 5.22-.3-.6-.9-1.78-1.2-2.38 9.97-13.59 5.14-32.14 2.87-47.49-1.26-5.99-8.78-6.28-12.72-3.39-4.88 7.4 4.4 16.89-1 23.53-.77-6.5.04-14.15-2.63-20.78-.7-3.99-1.59-7.95-2.23-11.95.24-4.88-2.36-9.35-5.67-3.59-.85-4.87-10.18-.76-14.64-4.89 3.7-.27 7.5-.39 11.06-1.53 12.96-3.47-4.29-14.56 3.19-20.04 7.61 2.48 1.01 16.73 8.68 15.09 3.25-11.36-5.66-22.12-4.69-33.75-7.68-5.59 2.3-6.38 3.52-11.11z" fill="#d93e3b"/><path d="m84.02 211.21c5.08-5.34 1.08-17.92 9.91-20.3 12.24 4.89 27.65 2.05 36.65 13.39 6.31.43-1.4 5.45-1.41 9.01 5.21-4.36 11.18.91 12.97 6.13 3.3-3.48 3.1-8.84 5.6-12.85-1.3 8.07 1.58 11.31 3.25 19.96 4.19-7.25 3.36-16.23 5-24.24 7.62-9.39 10.75 12.71 7.68 17.7-5.38 1.15-6.53 6.29-4.29 10.8-2.31 6.48-11.9-1.97-15.96 3.58-12.28 5.21-26.34 6.03-39.28 2.69-7.19 4.26-18.94 7.99-17.15 18.79 5.14 9.26 14.15 18.14 25.48 17.53 5.73 16.7 26.19 9.09 38.65 7.34.56 2.15 1.13 4.32 1.69 6.49-.89 7.58.91 14.79 4.62 21.29-2.33 6.98-9.33-2.98-13.04 2.83-4.53 7.04-7.18 15.81-10.09 23.25 5.24-3.2 15.65-9.5 15.84-17.43 1.29 5.74 11.19 9.95 8.38 17.53-8.93 3.87-18.6 5.69-28.07 7.71-4.34 1.85 4.37 1.17.12 3.65-8.56 4.17-3.76 22.29-15.91 18.37-4.81-2.52-9.01-6.09-12.79-9.96-4.59 2.11-11.08 2.45-11.45-4-3.69-6.33-6.12.99-5.15 4.96-11.93-12.89-8.55-31.55-12.61-47.07 5.7-2.29 11.78.62 16.98 2.92 3.47 8.03 13.73 14.97 22.12 10.5 3.63-4.95 11.67-9.74 8.23-16.78-3.14-10.4-15.59-10.6-22.11-17.89-7.6-5.83-18.45-1.39-27.06-2.09-2.26-16.86-1.21-34.63.58-51.58 6.79-9.16 8.26-20.34 7.52-31.31 4.01 3.48 7.99 1.88 5.1 9.08z" fill="#2b46e0"/><path d="m283.43 197.59c5.37 4.35 4.81 13.1 11.3 16.62l.43.71c1.41 12.78-7.02 25.15-3.12 38.52-1.32 4.65-5.82 8.55-4.33 13.67-5.7-.52-10.8-3.72-16.68-3.21 10.02.51 11.12-17.76 2.75-20.29.03-.42.08-1.25.11-1.67.52-5.6-.55-11.19-.63-16.78 6.96-5.95 1.04 13.63 8.63 7.61-1.73-11.73-.72-23.59 1.54-35.18z" fill="#80bb51"/><path d="m172.38 198.78c-.3 9.44 6.85 14.57 12.92 20.28-2.38 10.09-6.39 19.9-5.18 30.64-1.65 12.43-.92 24.98-1.2 37.47-4.51-6.17 1.66-19.48-9.88-21.17-13.64-7.73-18.91 11.11-16.23 21.23-.56-2.17-1.13-4.34-1.69-6.49-.11-1.97-.16-3.94-.17-5.91 1.47-2.93 2.48-6.06 3.88-9.02.25-.2.75-.58 1-.78 15.18 1.06 12.73-17.35 5.41-25.39-.65-2.94-1.2-5.91-1.86-8.83-2.24-4.51-1.09-9.65 4.29-10.8.96 3.08 7.85 5.75 4.52-1.93-.25-6.79 4.42-12.46 4.19-19.3z" fill="#286fb9"/><path d="m295.29 211.81c.78.81 1.57 1.62 2.37 2.41 1.52 3.26 6.58 1.11 7.04 4.98 5 12.62 21.16 14 31.36 20.71 3.66.44.72 2.16.06 3.32l-.88.13c-11.63-3.65-24.42 2.18-31.67 11.31-5.16 14.89 15.5 15.45 22.46 7.2 1.36 1.81 2.25 4.43 4.96 4.3 8.68-.52 16.11 1.19 21.87 8-1.29 3.4-10.62 3.25-4.73 6.93-13.06 3.38-25.45-10.46-37.44-5.35-1.9 8.88 4.51 17.93 6.3 26.31-5.82-.41-11.71-4.85-12.61-10.76 3.58-16.22-5.09-30.94-5.98-46.83 9.46 2.25 16.45-6.44 25.8-5.74-12.72-3.27-18.94-16.29-29.04-23.81l-.43-.71c.14-.6.42-1.8.56-2.4z" fill="#e77744"/><path d="m295.16 214.92c10.1 7.52 16.32 20.54 29.04 23.81-9.35-.7-16.34 7.99-25.8 5.74.89 15.89 9.56 30.61 5.98 46.83.9 5.91 6.79 10.35 12.61 10.76-1.79-8.38-8.2-17.43-6.3-26.31 11.99-5.11 24.38 8.73 37.44 5.35 6.95.85 13.51-1.02 19.93-3.27-13.6 13.62-34.47 1.67-50.3 2.23 1.74 8.8.82 19.58 4.92 28.3 4.54 6.43 12.14 24.92 21.62 14.86 7.27.51 6.27-8.91 12.82-10.98 1.06-6.99 11.44-5.18 11.71-12.55 3.07-5.02 9.45-10.5 5.36-16.83-3.54-2.89-.19-7.18-6.13-5.03 4-2.95 8.32-5.67 13.32-6.43 1.52.85 3.03 1.74 4.4 2.82-1.74 19.13-10.05 36.36-22.12 51.26-2.32 7.62-13.32 5.77-15.82 13.2-.43 7.6 8.9 10.15 8.17 17.66-.46 1.44-.92 2.87-1.39 4.31-4.6 3.41-7.2 1.69-4.23-3.47-4.34-4.46-5.52-13.64-13.21-12.94-4.45-2.76-7.9-7.34-13.64-7.33-9.57-5.26 3.47-12.33-1.06-20.32-.36-8.55-10.58-4.12-13.44-10.66-4.38-5.31-7.74 4.76-13.13 4.02-.01-1.34-.02-2.68-.04-4.02 5.86-2.44 3.81-9 3.82-14.14-1.46-11.91 3.65-29.72-7.65-38.35-3.9-13.37 4.53-25.74 3.12-38.52z" fill="#eea44c"/><path d="m187.93 217c.57-.33 1.71-.98 2.28-1.31 5.73 9.9 14.38 17.84 25.96 20.18-1.39 2.27-2.58 4.83-5.02 6.15-8.91 2.74-23.44 6.19-20.61 18.39 2.29 12.94 16.49 5.85 25.14 3.45-1.87 12 16.06-.49 14.01 9.77-8.15 4 3.16 6.37 7.15 6.95 2.44.66 4.88 1.33 7.37 1.84-13.42 3.39-26.96-3.74-40.12-6.03-3.1 2.27-.93 7.16-2.05 10.32-5.04 5.66 2.21 11.13 3.94 16.54-9.94-3.66-18.3-14.48-17.21-25.57.92-10-4.45-19.29-8.65-27.98-1.21-10.74 2.8-20.55 5.18-30.64.86-.7 1.74-1.39 2.63-2.06z" fill="#3bdc8b"/><path d="m159.38 230.81c.66 2.92 1.21 5.89 1.86 8.83-5.6.26-11.28 1.57-16.83.05-12.59-2.32-24.71 4.61-37.42 3.3-4.73.03-14.26 5.77-7.65 9.78 6.66.48 17.55-6.92 21.33.99-6.72 2.26-17.32 5.8-16.53 15 9.96.06 19.97 1.5 29.99 3.46-2.62 3.92-8.22 2.81-11.63 5.73 8.62 7.53 19.85 1.16 28.45-3.12.01 1.97.06 3.94.17 5.91-12.46 1.75-32.92 9.36-38.65-7.34-11.33.61-20.34-8.27-25.48-17.53-1.79-10.8 9.96-14.53 17.15-18.79 12.94 3.34 27 2.52 39.28-2.69 4.06-5.55 13.65 2.9 15.96-3.58z" fill="#3646b5"/><path d="m216.17 235.87c12.95 5.36 26.43 2.94 39.86 4.1-12.38-.79-23.89 6.37-36.41 5.42-2.67-1.58-8.45 4.85-3.69 4.59 9.59-3.18 21.19-2.82 29.96 2.45-2.54.93-2.76 2.54-1.18 4.56-7.39 3.3-21.36 1.44-23.83 11 10.34-5.6 19.17 2.44 29.99-1.12-1.61 6.44-9.59 9.33-14.03 13.71-3.99-.58-15.3-2.95-7.15-6.95 2.05-10.26-15.88 2.23-14.01-9.77 2-4.65 15.79-13.15 1.93-10.23-9.26 5-14.41-6.11-6.46-11.61 2.44-1.32 3.63-3.88 5.02-6.15z" fill="#379c55"/><path d="m106.99 242.99c12.71 1.31 24.83-5.62 37.42-3.3 5.55 1.52 11.23.21 16.83-.05 7.32 8.04 9.77 26.45-5.41 25.39 3.4-5.52 3.28-12.01-.92-17.98-10.47-2.55-22.58-7.84-33.4-1.08 4.08 3.65 13.13 3.34 11.28 10.92-3.44 3.23-11.52 1.3-15.14 5.97 6.14 5.61 15.6 6.18 22.32 1.26 4.18 4.08 9.84 4.56 14.86 1.69-1.4 2.96-2.41 6.09-3.88 9.02-8.6 4.28-19.83 10.65-28.45 3.12 3.41-2.92 9.01-1.81 11.63-5.73-10.02-1.96-20.03-3.4-29.99-3.46-.79-9.2 9.81-12.74 16.53-15-3.78-7.91-14.67-.51-21.33-.99-6.61-4.01 2.92-9.75 7.65-9.78z" fill="#2d4584"/><path d="m359.24 238.98c3.85.24 7.7.62 11.51 1.3 4.46 4.13 13.79.02 14.64 4.89-1.79 6.15-6.28 10.96-10.08 15.95-2.73-5.53-13.03-9.59-17.02-3.87-4.07 1.01-20 2.53-11.51 9.06 8.37 7.4 14.73-6.42 21.55-1.73-4.71 3.95-11.73 4.62-15.47 9.59-5.76-6.81-13.19-8.52-21.87-8-4.13-2.16-.04-5.3 2.48-6.73 5.78-3.04 20.49 2.72 19.94-7.94-10.48-4.08-20.88-.97-31.14.39-6.34-7.09 8.8-7.98 12.97-8.53l.88-.13c7.73-1.34 15.84-.88 23.12-4.25z" fill="#9f383b"/><path d="m219.62 245.39c12.52.95 24.03-6.21 36.41-5.42 5.63 2.53 11.94 1 17.86 1.97-.03.42-.08 1.25-.11 1.67-2.33 7.82-7.77 14.09-11.54 21.21-3.85 4.86-12.16-6.14-11.37 2.05-10.82 3.56-19.65-4.48-29.99 1.12 2.47-9.56 16.44-7.7 23.83-11-1.58-2.02-1.36-3.63 1.18-4.56-8.77-5.27-20.37-5.63-29.96-2.45-4.76.26 1.02-6.17 3.69-4.59z" fill="#395638"/><path d="m121.51 245.97c10.82-6.76 22.93-1.47 33.4 1.08 4.2 5.97 4.32 12.46.92 17.98-.25.2-.75.58-1 .78-5.02 2.87-10.68 2.39-14.86-1.69-6.72 4.92-16.18 4.35-22.32-1.26 3.62-4.67 11.7-2.74 15.14-5.97 1.85-7.58-7.2-7.27-11.28-10.92z" fill="#324450"/><path d="m190.54 260.41c-2.83-12.2 11.7-15.65 20.61-18.39-7.95 5.5-2.8 16.61 6.46 11.61 13.86-2.92.07 5.58-1.93 10.23-8.65 2.4-22.85 9.49-25.14-3.45z" fill="#39cd42"/><path d="m303.57 254.67c7.25-9.13 20.04-14.96 31.67-11.31-4.17.55-19.31 1.44-12.97 8.53 10.26-1.36 20.66-4.47 31.14-.39.55 10.66-14.16 4.9-19.94 7.94-2.52 1.43-6.61 4.57-2.48 6.73-2.71.13-3.6-2.49-4.96-4.3-6.96 8.25-27.62 7.69-22.46-7.2z" fill="#d8423a"/><path d="m385.39 245.17c3.31-5.76 5.91-1.29 5.67 3.59-1.07 8.89-5.86 16.78-14.36 20.3 1.57.76 3.18 1.44 4.68 2.34-5 .76-9.32 3.48-13.32 6.43-6.42 2.25-12.98 4.12-19.93 3.27-5.89-3.68 3.44-3.53 4.73-6.93 3.74-4.97 10.76-5.64 15.47-9.59 3.71 2.61 5.87.24 6.98-3.46 3.8-4.99 8.29-9.8 10.08-15.95z" fill="#b98447"/><path d="m262.24 264.82c3.77-7.12 9.21-13.39 11.54-21.21 8.37 2.53 7.27 20.8-2.75 20.29-4.38 2.11-6.91 6.07-7.17 10.94-6.09 3.62-12.87 5.71-19.65 7.58-2.49-.51-4.93-1.18-7.37-1.84 4.44-4.38 12.42-7.27 14.03-13.71-.79-8.19 7.52 2.81 11.37-2.05z" fill="#4b7c82"/><path d="m376.7 269.06c8.5-3.52 13.29-11.41 14.36-20.3.64 4 1.53 7.96 2.23 11.95.56 15.47-1.05 32.88-7.05 46.5-.06 2.18 2.5 2.57 3.94 3.59-4.39.47-11.47 5.04-7.9 9.89 2.21 3.35 7.49 1.86 9.17 5.99 2.71.52 6.73-14.25 7.33-3.43 1.95 2.81 4.59 13.26-.52 9.49-4.1-5.43-2.43 9.38-5.19 1.14-.5-2.24-2.13-3.85-3.01-.84-3.58 6.28 1.5 23.12-9.96 17.23-8.46-7.04-18.61-2.64-24.09 6.07.73-7.51-8.6-10.06-8.17-17.66 2.5-7.43 13.5-5.58 15.82-13.2 12.07-14.9 20.38-32.13 22.12-51.26-1.37-1.08-2.88-1.97-4.4-2.82-1.5-.9-3.11-1.58-4.68-2.34z" fill="#e68341"/><path d="m180.12 249.7c4.2 8.69 9.57 17.98 8.65 27.98-5.74 8.96-5.13 19.39-6.66 29.4-7.54 6.03-15.33-.26-22.96 4.96-.56-1.18-1.14-2.35-1.72-3.52-3.71-6.5-5.51-13.71-4.62-21.29-2.68-10.12 2.59-28.96 16.23-21.23 11.54 1.69 5.37 15 9.88 21.17.28-12.49-.45-25.04 1.2-37.47m-22.83 26.37c-1.27 6.26-1.31 16.81 3.57 22.13 2.62-4.99 1.31-12.45 6.46-15.98 10.12 1.02-5.79-9.08-10.03-6.15z" fill="#4ac2da"/><path d="m31.19 253.5c6.32 4.25 13.07-.58 20.06 1.39 3.56.73 10.74 7.4 5.61 9.57-6.76-3.25-18.1-1.63-17.65 7.82 1.11 8.9-.37 17.95.63 26.83 4.46 10.95 8.72 22 12.98 33.01 5.37 6.3 2.68 17.08 11.18 20.95 2.5 1.51 6.29 1.15 7.95 3.78-11.1 6.51-15.36-4.08-18.8-11.78 2.77-6.1-5.78-6.26-9.17-9.03-4.69-11.27-19.17-1.44-27.24-8.77-3.24-.69-2.86-8.57.09-4.51 1.65-6.41 5.44-14.68-.02-19.68-4.85-9.56 11.18-11.64 8.63-21.48-2.73-8.93-8.75-27.29 5.75-28.1z" fill="#1c4546"/><path d="m287.71 267.11c-1.49-5.12 3.01-9.02 4.33-13.67 11.3 8.63 6.19 26.44 7.65 38.35-.01 5.14 2.04 11.7-3.82 14.14-8.38 2.27-17.54 2-25.31 6.28l-.39-.85c-2.28-5.13-4.52-10.3-6.38-15.61 1.3-6.9.28-13.96.07-20.91.26-4.87 2.79-8.83 7.17-10.94 5.88-.51 10.98 2.69 16.68 3.21z" fill="#e0db7e"/><path d="m358.29 257.25c3.99-5.72 14.29-1.66 17.02 3.87-1.11 3.7-3.27 6.07-6.98 3.46-6.82-4.69-13.18 9.13-21.55 1.73-8.49-6.53 7.44-8.05 11.51-9.06z" fill="#593f36"/><path d="m396.92 257.96c3.94-2.89 11.46-2.6 12.72 3.39 2.27 15.35 7.1 33.9-2.87 47.49-5.68-.17-10.94 3.91-16.59 1.96-1.44-1.02-4-1.41-3.94-3.59 6-13.62 7.61-31.03 7.05-46.5 2.67 6.63 1.86 14.28 2.63 20.78 5.4-6.64-3.88-16.13 1-23.53z" fill="#f15f3d"/><path d="m244.21 282.42c6.78-1.87 13.56-3.96 19.65-7.58.21 6.95 1.23 14.01-.07 20.91-1.78 13.46-16.48 18.31-20.63 30.48-7.63 3.64-15.75 6.07-23.9 7.4-3.1-2.32-5.49-6.69-4.16-10.57 8.11-.22 16.77-8.01 16.98-16.03-4.58-12.3-19.39-15.65-30.04-20.32 1.12-3.16-1.05-8.05 2.05-10.32 13.16 2.29 26.7 9.42 40.12 6.03z" fill="#40e2ba"/><path d="m157.29 276.07c4.24-2.93 20.15 7.17 10.03 6.15-5.15 3.53-3.84 10.99-6.46 15.98-4.88-5.32-4.84-15.87-3.57-22.13z" fill="#3a68d2"/><path d="m368.06 277.83c5.94-2.15 2.59 2.14 6.13 5.03 4.09 6.33-2.29 11.81-5.36 16.83-.27 7.37-10.65 5.56-11.71 12.55-6.55 2.07-5.55 11.49-12.82 10.98-9.48 10.06-17.08-8.43-21.62-14.86-4.1-8.72-3.18-19.5-4.92-28.3 15.83-.56 36.7 11.39 50.3-2.23z" fill="#f4c452"/><path d="m182.11 307.08c1.53-10.01.92-20.44 6.66-29.4-1.09 11.09 7.27 21.91 17.21 25.57-1.73-5.41-8.98-10.88-3.94-16.54 10.65 4.67 25.46 8.02 30.04 20.32-.21 8.02-8.87 15.81-16.98 16.03-3.32-15.52-19.5-21.48-32.99-15.98z" fill="#68e4b9"/><path d="m70.82 285.02c8.61.7 19.46-3.74 27.06 2.09 6.52 7.29 18.97 7.49 22.11 17.89 3.44 7.04-4.6 11.83-8.23 16.78-8.39 4.47-18.65-2.47-22.12-10.5-5.2-2.3-11.28-5.21-16.98-2.92-4.77-6.58-3.79-15.94-1.84-23.34z" fill="#3070e5"/><path d="m243.16 326.23c4.15-12.17 18.85-17.02 20.63-30.48 1.86 5.31 4.1 10.48 6.38 15.61-8.89 4.71-.24 13.03 4.55 16.95 4.38 14.15-16.33 13.77-25.17 18.11-4.46 6.57-11.64 13.26-10.88 21.77-2.93 10.26-13.76 1.85-20.95 2.09.04-4.09-2.16-7.64-3.73-11.28 5.16.82 11.24-.85 14.12 4.93 4.24 4.1 4.82-3.32 4.49-6.31-7.27-11.54-23.04-14.43-30.67-25.78 3-5.62 8.99-11.99 4.33-19.09-6.92-1.63-13.54-10.06-19.23-.79-8.27 4.8-18.62-.42-27.37 2.27-.13-.55-.38-1.64-.51-2.19 7.63-5.22 15.42 1.07 22.96-4.96 13.49-5.5 29.67.46 32.99 15.98-1.33 3.88 1.06 8.25 4.16 10.57 8.15-1.33 16.27-3.76 23.9-7.4z" fill="#3ed28a"/><path d="m295.91 309.95c5.39.74 8.75-9.33 13.13-4.02 2.86 6.54 13.08 2.11 13.44 10.66 4.53 7.99-8.51 15.06 1.06 20.32 5.74-.01 9.19 4.57 13.64 7.33 7.69-.7 8.87 8.48 13.21 12.94-2.97 5.16-.37 6.88 4.23 3.47-1.8 3.6.76 5.87 4.22 6.44-.14 5.14-4.04 14.17-10.26 9.48-3.83.42-1.39 6.04-1.6 8.7-2 1.13-4.33 1.87-5.88-.35-5.04-4.07-1.07-15.28-10.16-12.85-4.82 1-.97-9.19-6.68-7.89 2.3 5.63-4.02 11.6-8.2 5.82-9.95 1.05-8.12-9.89-13.22-14.92 9.98.63 19.98 1.26 29.72 3.46 12.2 2.6 4.36-12.64-2.98-12.01-7.21-1.99-12.45-6.42-16.71-12.41-6.52 2.04.16 12.25 4.97 13.11-.5 4.69-6.07 2.33-9.37 2.4-7.43-2.16-14.19 3.72-21.7 1.68-1.02-.75-2.01-1.52-3.01-2.27 5.7-.49 20.22 4.43 17.24-7.04-4.51.19-7.73 4.7-12.98 2.98-2.77-5.87 4.85-4.95 5.57-9.11-2.25-6.69-5.12-14.08-1.82-20.96-4.36 12.38 9.65 11.51 16.25 16.17 7.77-.61 14.18-11.05 9.91-18.01-4.51-.56-8.63-2.01-12.01-5.07-4.14 2.5-7.77 8.59-13.23 5.7 1.02-1.29 2.1-2.55 3.22-3.75z" fill="#e27540"/><path d="m270.56 312.21c7.77-4.28 16.93-4.01 25.31-6.28.02 1.34.03 2.68.04 4.02-1.12 1.2-2.2 2.46-3.22 3.75-.23.3-.69.91-.92 1.21-3.3 6.88-.43 14.27 1.82 20.96-.72 4.16-8.34 3.24-5.57 9.11 5.25 1.72 8.47-2.79 12.98-2.98 2.98 11.47-11.54 6.55-17.24 7.04-.93-9.27-4.88-17.42-9.09-25.58 2.89-5.32 9.75-4.22 13.75-7.43-5.13-3.6-11.66-5.15-17.38-1.95-.12-.47-.36-1.4-.48-1.87z" fill="#e89576"/><path d="m407.97 311.22c4.23.52 6.86-3.28 10.17-5.22 7.58 3.85 18.43 8 13.72 18.83-9.81 8.02 5.6 15.2 12.22 19.07 7.34 3.02 8.48 10.54 11.01 17.02.44 1.73 2.84 3.75 1.09 5.36-11.51-11.3-29.27-10.12-44.32-12.15-10.46 1.91-2.2-3.11.74-3.59 6.17-.47 20.52.09 10.32-6.5-3.13-9.25-9.72-16.8-19.21-20.21 1.09-4.3 1.97-8.76 4.26-12.61z" fill="#703940"/><path d="m187.03 311.96c5.69-9.27 12.31-.84 19.23.79 4.66 7.1-1.33 13.47-4.33 19.09 7.63 11.35 23.4 14.24 30.67 25.78.33 2.99-.25 10.41-4.49 6.31-2.88-5.78-8.96-4.11-14.12-4.93-6.91-4.74-24.24 2.47-24.06-10 2.92-.7 11.77.27 7.9-3.82-6.07-3.75-3.39-12.48-10.51-15.46-7.14 1.37-7.1-8.61-13.44-8.62-3.87-.11.94-1.36 1.53-2.93-4.8 0-8.97 2.16-12.79 4.79-1.98-2.5-2.81-5.56-2.96-8.73 8.75-2.69 19.1 2.53 27.37-2.27z" fill="#43d54e"/><path d="m292.69 313.7c5.46 2.89 9.09-3.2 13.23-5.7 3.38 3.06 7.5 4.51 12.01 5.07 4.27 6.96-2.14 17.4-9.91 18.01-6.6-4.66-20.61-3.79-16.25-16.17.23-.3.69-.91.92-1.21z" fill="#ea3535"/><path d="m390.18 310.8c5.65 1.95 10.91-2.13 16.59-1.96.3.6.9 1.78 1.2 2.38-2.29 3.85-3.17 8.31-4.26 12.61-1.41 3.06-1.15 6.29.04 9.38 5.22 11.27-16.32 13.52-10.68.67 2.76 8.24 1.09-6.57 5.19-1.14 5.11 3.77 2.47-6.68.52-9.49-.6-10.82-4.62 3.95-7.33 3.43-1.68-4.13-6.96-2.64-9.17-5.99-3.57-4.85 3.51-9.42 7.9-9.89z" fill="#aa763d"/><path d="m274.72 328.31c-4.79-3.92-13.44-12.24-4.55-16.95l.39.85c.12.47.36 1.4.48 1.87.67 3.31 2.11 6.38 3.63 9.38 4.21 8.16 8.16 16.31 9.09 25.58-10.71 9.18-26.76-4.38-35.12 7.61-1.74 1.97-3.02 4.43-2.77 7.14 9.35-1.53 16.74-9.78 27.12-7.86l.11 1c-12.65 3.14-28.53 8.83-30.5 23.82-2.63 5.33-5.94 10.47-12.47 12.57 3.37-5.17-.38-4.65-4.87-3.36-4.98-2.89-4.79-13.72-11.36-6.24-2.87-.23-5.64-1.01-8.41-1.71-3.79-7.89-14.73-10.04-14.4-19.93.8-3.49-1.67-5.24-4.93-5.07 4.1-10.02-11.96.11-14.4-9.04 6.55 5.63 12.12-3.19 18.17 1.03-.18 12.47 17.15 5.26 24.06 10 1.57 3.64 3.77 7.19 3.73 11.28 7.19-.24 18.02 8.17 20.95-2.09-.76-8.51 6.42-15.2 10.88-21.77 8.84-4.34 29.55-3.96 25.17-18.11z" fill="#3f9d6f"/><path d="m271.04 314.08c5.72-3.2 12.25-1.65 17.38 1.95-4 3.21-10.86 2.11-13.75 7.43-1.52-3-2.96-6.07-3.63-9.38z" fill="#d83967"/><path d="m554.04 328.27c2.45-10.9 20.42-17.29 26.44-7.07-2.76 20.75-6.04 41.64-13.31 61.37-3.59-3.71-1.83-8.86-1.16-13.37 5.44-5.69-3.56-13.27-8.2-17.05-10.46-5.62 1.9-15.79-3.77-23.88z" fill="#387859"/><path d="m162.62 322.96c3.82-2.63 7.99-4.79 12.79-4.79-.59 1.57-5.4 2.82-1.53 2.93 6.34.01 6.3 9.99 13.44 8.62 7.12 2.98 4.44 11.71 10.51 15.46 3.87 4.09-4.98 3.12-7.9 3.82-6.05-4.22-11.62 4.6-18.17-1.03-1.85-8.72-4.12-17.51-9.14-25.01z" fill="#4ad08d"/><path d="m507.45 321.39c1.65-4.63 4.3 1.51 7.48-.15.03 3.35.44 6.65.88 9.99-.13 3.15.81 6.69-1.12 9.44-3.9 7.45-14.56-.11-16.55 9.54-4.75 1.2-10.31.73-14.12-2.56-1.87-8.69-1.31-20.46 7.95-24.67 4.9-4.52 11.94 5.21 15.48-1.59z" fill="#8d3c74"/><path d="m451.83 328.87c1.39-11.71 16.08-11.77 19.5-1.43-4.19 10.39 1.07 36.66-16.24 33.48-2.53-6.48-3.67-14-11.01-17.02-6.62-3.87-22.03-11.05-12.22-19.07-4.55 12.86 18.4 16.7 19.97 4.04z" fill="#bc3b66"/><path d="m530.07 343.26c9.9-3.42 9.06-26.17 23.97-14.99 5.67 8.09-6.69 18.26 3.77 23.88 4.64 3.78 13.64 11.36 8.2 17.05-14.52.28-26.1-9.74-40.28-11.97-7.34-3.18-1.33-12.67 4.34-13.97z" fill="#3b4c73"/><path d="m317.84 347.23c-4.81-.86-11.49-11.07-4.97-13.11 4.26 5.99 9.5 10.42 16.71 12.41 7.34-.63 15.18 14.61 2.98 12.01-9.74-2.2-19.74-2.83-29.72-3.46-.61-.14-1.85-.41-2.47-.55-4.13-2.55-9.91.09-13.6-3.22 7.51 2.04 14.27-3.84 21.7-1.68 3.3-.07 8.87 2.29 9.37-2.4z" fill="#e13e31"/><path d="m356.01 356.34c5.48-8.71 15.63-13.11 24.09-6.07 2.22 6.94-11.23 1.21-5.28 7.6-5.6 2.58-10.88 5.77-15.98 9.22-3.46-.57-6.02-2.84-4.22-6.44.47-1.44.93-2.87 1.39-4.31z" fill="#a27041"/><path d="m131.11 368.81c-8.54-12.13 16.38-30.54 25.3-17.11 5.3 1.3 10.61-1.54 15.35-3.73 2.44 9.15 18.5-.98 14.4 9.04-7.36 1.65-14.67-2.94-22.19-1.1-12.91-1.39-21.87 8.54-32.86 12.9z" fill="#314070"/><path d="m477.66 358.71c4.93-2.4-.49-11.42 6.36-11.06 3.81 3.29 9.37 3.76 14.12 2.56-1.93 3.64-2.8 8.76-7.65 9.39-2.35 2.92-1.85 7.68-5.46 9.71-1.88-2.03-3.87-6.09-7.03-3.36-9.56 6.07-10.49 20.51-21 26.07-5.28 1.46.08 13.7-5.94 10.01-2.36-11.27-6.67 9.73-8.36 9.62-.11-5.34-10.18-6.22-9.15-.12.12 1.47 2.25 11.72-.8 9.66.3-5.85-5.21-12.26-11.01-8.66-10.76.58-21.13-6.97-30.49 1.8-5.89 1.85-15.03-3.6-15.94 6.18-3.59-2.19-10.55-.96-9.94-7.03-1.51-4.9-6.34.95-9.11 1.83-2.25 2.97-8.7-1.56-7.25 3.6 7.99 6.91 18.23 12.46 26.05 19.83-.54.09-1.62.29-2.17.38-2.94-.46-5.88-1-8.85-1.18-10.6-14.1-27.52-21.11-38.61-34.77-.92-1.33-1.77-2.69-2.68-4.01 5.67 0 5.73-6.49 10.09-8.44 1.15.86 2.29 1.75 3.43 2.64 1.69 1.64 4.12 8.13 5.41 3.21 2.37-5.1 4.56 5.43 6.77 2.01 3.36-5.76 4.12 3.86 7.16-2.01 3.41-5.82 5.64 6.98 5.53-.55 5.16-3.78-.54 11.21 8.54 6.4.75 6.61 3.88 8.98 8.53 3.27 7.66 5.32 18.92-1.24 26.69-4.7 7.08 8 14.98 1.79 23.19.3 9.51.43 15.86-9.17 19.75-16.4 9.04-1.22 5.87-17.6 18.05-11.07 1.27-6.84 5.59-11.86 11.77-15.11z" fill="#6a3540"/><path d="m248.64 356.65c8.36-11.99 24.41 1.57 35.12-7.61 1 .75 1.99 1.52 3.01 2.27 3.69 3.31 9.47.67 13.6 3.22-1.24.54-2.47 1.08-3.7 1.62-7.91.1-15.84-1.86-23.68-.22-10.38-1.92-17.77 6.33-27.12 7.86-.25-2.71 1.03-5.17 2.77-7.14z" fill="#404c4d"/><path d="m64 353.07c13.34-6.71 13.51 11.31 18.78 18.18 7.91 3.54 15.05 18.43 24.38 9.76.42 5.44 6.2 6.31 9.74 11.08 3.4 4.95 8.8-2.92 13.41-1.25 4.03 1.79 9.87-1.62 12.26 3.53-2.93 10.54 11.87 11.4 18.59 11.57 9.42 3.04 16.92-11.55 25.54-4.56 3.96 5.74 8.58-2.92 13.31-.5.05 1.29.06 2.59.04 3.89-7.22 12.89-18.11-5.19-26.25 4.05-7.73 8.29-18.61-2.18-26.4 5.54-6.52 5.19-.05-11.75-8.05-8.13-5.37 3.06-7.88-.95-8.65-6.13-14.62 7.1-18.18-12.89-32.5-13.29-13.29-3.65-22.06-17.34-26.25-29.96-1.66-2.63-5.45-2.27-7.95-3.78z" fill="#303b64"/><path d="m272.99 355.93c7.84-1.64 15.77.32 23.68.22 3.27 1.95 6.5 4.48 4.38 8.61-6.52 1.57-17.42-3.58-21.68 2.4 6.13 7.07 20.62 17.88 28.97 7.69 4.51 3.85 8.54 9.79 15.16 9.3 6.88-2.6 5.46 4.15 9.34 6.57-4.36 1.95-4.42 8.44-10.09 8.44-2.94-4.74-6.69-8.78-11.58-11.53.55-4.96-5.42-5.95-9.15-5.77-10.36-3.46-26.61-2.46-27.96-16.78 4.03-5.06 12.97-1.32 17.13-6.87-5.96-1.16-12.05-1.16-18.09-1.28z" fill="#4e9940"/><path d="m296.67 356.15c1.23-.54 2.46-1.08 3.7-1.62.62.14 1.86.41 2.47.55 5.1 5.03 3.27 15.97 13.22 14.92 4.18 5.78 10.5-.19 8.2-5.82 5.71-1.3 1.86 8.89 6.68 7.89 9.09-2.43 5.12 8.78 10.16 12.85-6.43-2.15-5.46 4.76-4.83 8.44-1.14-.89-2.28-1.78-3.43-2.64-3.88-2.42-2.46-9.17-9.34-6.57-6.62.49-10.65-5.45-15.16-9.3-3.06-3.02-2.69-8.82-7.29-10.09 2.12-4.13-1.11-6.66-4.38-8.61z" fill="#a87f44"/><path d="m374.82 357.87c13.93-5.45 29.09-.83 43.51-1.27 2.65.28 9.61-.21 7.04 3.71-10.37 4.68-21.58 3.99-32.57 5.46-3.52.11-1.1 4.64.44 6.04 12.68 11.36 31.82 8.34 46.54 12.41-3.78 16.57-25.16 11.3-37.89 11.66-10.03 6.63-28.78 10.9-32.91-3.88-4.31-8.06-13.73-16.15-22-6.73.21-2.66-2.23-8.28 1.6-8.7 6.22 4.69 10.12-4.34 10.26-9.48 5.1-3.45 10.38-6.64 15.98-9.22z" fill="#de3a38"/><path d="m242.6 380.75c1.97-14.99 17.85-20.68 30.5-23.82 6.04.12 12.13.12 18.09 1.28-4.16 5.55-13.1 1.81-17.13 6.87 1.35 14.32 17.6 13.32 27.96 16.78 3.73-.18 9.7.81 9.15 5.77-.41 2.4-.78 4.81-1.13 7.23-5.34 4.73-12.38-.89-18.36.85-9.52 6.67-20.82 8.23-31.26 4.97-3.36-8.09-7.76-19.5-17.82-19.93z" fill="#3ac43c"/><path d="m493.1 365.26c.87-3.45 7.77-9.64 8.76-4.44-8.16 8.29 1 17.05 3.97 25.22.71 6.7-11.92.73-8.98 6.65 3.9-3.19 8.38.98 12.61 1.53-1.29-4.78 5.97-.89 7.75-1.5 6.51 5.58 16.14 2.44 22.85-1.38-7.37-5.33-16.86-3.21-23.68-7.54 3.72-1.79 4.02-8 4.97-12.45 2.39-.72 11.16-.76 6.73-4.59 11.75-.93 20.74 6.81 31.74 7.86 2 3.12-1.85 6.57-2.3 9.87-.68 4.58-8.04-.15-8.94 4.3-7.78 2.76 9.38 8.34 13.67 7.58-5.75 15.54-13.23 30.39-21.87 44.52-17.88.23-35.83-4.49-53.62-1.81 1.24-12.58 3.79-25.06 3.6-37.77 1.52-2.38 2.57-12.93-2.37-7.33-5.76 11.65-17.4 22-14.83 36.19-3.24 3.71 6.82 7.59-.35 7.13-14.71-11.38-32.82-11.48-50.49-12.23-3.73 2.67 1.18 2.13 4.21 2.29 5.68 3.26 7.19 10.54-.8 11.66-16.64 1.67-33.42-4.25-49.86-.4l-.81.12c-7.82-7.37-18.06-12.92-26.05-19.83-1.45-5.16 5-.63 7.25-3.6 2.77-.88 7.6-6.73 9.11-1.83-.61 6.07 6.35 4.84 9.94 7.03.91-9.78 10.05-4.33 15.94-6.18 9.36-8.77 19.73-1.22 30.49-1.8 5.8-3.6 11.31 2.81 11.01 8.66 3.05 2.06.92-8.19.8-9.66-1.03-6.1 9.04-5.22 9.15.12 1.69.11 6-20.89 8.36-9.62 1.27 7.29 5.84.75 5.11-3.82 6.13 4.87 8.01-8.27 15.71-5.38 7.84.54-.55-7.69-1.3-10.03 10.38-.71 16.72-10.32 22.52-17.54z" fill="#343937"/><path d="m164.42 364.42c8.76-2.23 18.14.79 26.67-2.34-.33 9.89 10.61 12.04 14.4 19.93-3.29 4.49-9.97-4.99-15.36-1.58-9.25-1.17-27.56-2.6-25.71-16.01z" fill="#373d6f"/><path d="m279.37 367.16c4.26-5.98 15.16-.83 21.68-2.4 4.6 1.27 4.23 7.07 7.29 10.09-8.35 10.19-22.84-.62-28.97-7.69z" fill="#3c5c36"/><path d="m213.9 383.72c6.57-7.48 6.38 3.35 11.36 6.24-.25 1.7-.51 3.41-.8 5.12-5.34-3.67-7.85 5.11-10.91 7.99-.42-.25-1.25-.75-1.67-1-3.04-1.69-5.12-4.52-6.01-7.87 4.51-1.35 10.82-5.13 8.03-10.48z" fill="#394a78"/><path d="m230.13 393.32c6.53-2.1 9.84-7.24 12.47-12.57 10.06.43 14.46 11.84 17.82 19.93 10.44 3.26 21.74 1.7 31.26-4.97 5.98-1.74 13.02 3.88 18.36-.85.48 3.45.95 6.93 1.81 10.32-5.19-.02-10.68 4.86-15.04-.01-5-6.45-11.5 1.77-17.08 3.58-3.3 4.26-10.16-2.76-12.52 3.13-.92-6.92-8.29.52-10.26 3.27 2.56-5.86 1.96-14.56-6.27-10.55-7.43 4.08-1.66-4.28-3.2-8.94-3.85 1.46-6.7 4.68-10.42 6.41 3.12-3.82-4.61-6.84-6.72-3.86 2.26-5.42-7.52 1.98-5.88-3.13.29-1.71.55-3.42.8-5.12 4.49-1.29 8.24-1.81 4.87 3.36z" fill="#387934"/><path d="m86.43 388.4c11.05 1.61 13.14 16.9 22.9 22.16 12.87 10.85 28.36 18.93 39.59 31.57 4.3 5.01-11.21 1.8-6.79 5.24-3.12.7-6.2 1.51-9.27 2.41-9.95 2.81-19.99 5.31-30.03 7.8-5.78 1.23-11.37 3.15-16.68 5.75-9.32-2.05 3.57-1.72 2.5-7.71-3 .16-5.95.66-8.94.95 1.4-9.97 8.53-12.41 18.51-10.7 11.32-.88 24.23 2.5 34.77-2.95-4.82-10.47-15.57-15.92-20.98-25.92-10.31-6.34-14.8-19.52-23.96-26.17-.14 16.98 5.26 34.52-.45 51.11-.88 2.45-2.84 3.77-4.99 1.7-11.29 1.12-23.38 3.07-34.87 1.07 13.41-2.21 30.92 2.94 39.67-10.37 3.06-15.31-2.65-30.63-.98-45.94z" fill="#254182"/><path d="m311.17 387.63c4.89 2.75 8.64 6.79 11.58 11.53.91 1.32 1.76 2.68 2.68 4.01-4.71 1.39-10.58-3.83-13.58 2.01-.86-3.39-1.33-6.87-1.81-10.32.35-2.42.72-4.83 1.13-7.23z" fill="#c69446"/><path d="m198.64 394.21c-.32-6.28 5.12-3.28 7.23-.01.89 3.35 2.97 6.18 6.01 7.87.37 1.17.77 2.34 1.12 3.52-3.73 4.67-10.5-.67-11.62 6.77-.39-2.54-.88-5.06-1.33-7.59.02-1.3.01-2.6-.04-3.89-.27-2.26-.87-4.46-1.37-6.67z" fill="#3dc57d"/><path d="m88.05 390.83c9.16 6.65 13.65 19.83 23.96 26.17 5.41 10 16.16 15.45 20.98 25.92-10.54 5.45-23.45 2.07-34.77 2.95-3.17-1.28-8.97.04-10.62-3.93 5.71-16.59.31-34.13.45-51.11z" fill="#173dcb"/><path d="m487.99 393.98c4.94-5.6 3.89 4.95 2.37 7.33.19 12.71-2.36 25.19-3.6 37.77-4.64-.5-9.48-.29-13.95-1.78 7.17.46-2.89-3.42.35-7.13-2.57-14.19 9.07-24.54 14.83-36.19z" fill="#5f3a3a"/><path d="m213.55 403.07c3.06-2.88 5.57-11.66 10.91-7.99-1.64 5.11 8.14-2.29 5.88 3.13 2.11-2.98 9.84.04 6.72 3.86 3.72-1.73 6.57-4.95 10.42-6.41 1.54 4.66-4.23 13.02 3.2 8.94 8.23-4.01 8.83 4.69 6.27 10.55 1.97-2.75 9.34-10.19 10.26-3.27 2.36-5.89 9.22 1.13 12.52-3.13 5.58-1.81 12.08-10.03 17.08-3.58 4.36 4.87 9.85-.01 15.04.01.16 1.16.33 2.33.51 3.51-.11 2.84-.22 5.7-.31 8.56-11.43.14-24.21-4.25-33.86 2.62-4.07-3.83-9.18.61-12.51-4.66-5.78.8-15.35 3.97-14.6 11.64 4.67 10.42 16.23 12.82 25.16 17.95-2.52.23-5.02.51-7.51.86-11.4 1.09-22.66 3.33-33.58 6.78-10.2-4.74 6.27-6.44 10.08-6.23 5.91-.24 11.93.13 17.71-1.39-13.44-17.05-35.34-25.06-49.39-41.75z" fill="#3c3e31"/><path d="m211.88 402.07c.42.25 1.25.75 1.67 1 14.05 16.69 35.95 24.7 49.39 41.75-5.78 1.52-11.8 1.15-17.71 1.39-6.84-.27-13.77.41-20.54-.81 3.95-1.4 19.96 1.82 14.97-6.94-6.91-12.45-16.73-22.65-26.66-32.87-.35-1.18-.75-2.35-1.12-3.52z" fill="#3d8f3e"/><path d="m311.85 405.18c3-5.84 8.87-.62 13.58-2.01 11.09 13.66 28.01 20.67 38.61 34.77l-1.05.07c-10.68-3.6-19.61-12.1-31.3-12.51-5.92-.06-12.22 1.75-17.55-1.65-.22-5.1-.83-10.16-1.78-15.16-.18-1.18-.35-2.35-.51-3.51z" fill="#d6313b"/><path d="m201.38 412.36c1.12-7.44 7.89-2.1 11.62-6.77 9.93 10.22 19.75 20.42 26.66 32.87 4.99 8.76-11.02 5.54-14.97 6.94-8.23-1.21-17.27.76-25.2-1.69 1.06-8.84 4.54-18.77 1.73-28.09-.1-.47-.3-1.41-.4-1.87.14-.35.42-1.04.56-1.39z" fill="#39ce25"/><path d="m312.36 408.69c.95 5 1.56 10.06 1.78 15.16 4.2 6.58-9 19.38 1.27 21.41-13.34.78-15.14 22.39-30.72 21.48-4.34-.86-10.38.87-13-3.72 3.92-2.34 10.08-9.56-.68-7.14 3.28-3.66-4.93-7.74 1.06-9.93-.83-.07-2.51-.22-3.34-.29 2.49-.35 4.99-.63 7.51-.86 17.31 3.2 43.89-4.58 35.81-27.55.09-2.86.2-5.72.31-8.56z" fill="#8e1a4e"/><path d="m198.79 422.16c.42-2.89.86-5.74 2.03-8.41.1.46.3 1.4.4 1.87 7.83 23.27-16.75 31.48-34.56 29.05-1.63.06-4.89.17-6.53.23-3.4-9.22-25.05-12.65-16.18-22.84-.63 6.47 3.22 8.98 2.16 1.09 5.74 1.89 7.18-9.02 11.58-4.86 3.14 4.57 5.06-4.77 8.08 1.92 3.91 5.28 4.31-5.66 8.97-5.26 3.44 9.03 20.29-3.58 24.05 7.21z" fill="#303518"/><path d="m251.08 426.85c-.75-7.67 8.82-10.84 14.6-11.64 3.33 5.27 8.44.83 12.51 4.66 9.65-6.87 22.43-2.48 33.86-2.62 8.08 22.97-18.5 30.75-35.81 27.55-8.93-5.13-20.49-7.53-25.16-17.95z" fill="#391b47"/><path d="m201.22 415.62c2.81 9.32-.67 19.25-1.73 28.09 7.93 2.45 16.97.48 25.2 1.69 6.77 1.22 13.7.54 20.54.81-3.81-.21-20.28 1.49-10.08 6.23-3.34 1.05-6.71 2.02-10.06 3.03-8.43 1.54-16.83 3.32-24.73 6.76-5.94 1.33-19.22 2.49-15.58-6.66 1.17-6.42-10.26-1.81-13.7-6.64-5.59-3.26 3.7-.47 5.32-3.71-3.27-.24-6.48-.35-9.74-.55 17.81 2.43 42.39-5.78 34.56-29.05z" fill="#417715"/><path d="m314.14 423.85c5.33 3.4 11.63 1.59 17.55 1.65 11.69.41 20.62 8.91 31.3 12.51-.3 2.01 2.23 5.81-.63 6.4-15.61 1.69-31.3.81-46.95.85-10.27-2.03 2.93-14.83-1.27-21.41z" fill="#df1f77"/><path d="m422.32 425.07c17.67.75 35.78.85 50.49 12.23 4.47 1.49 9.31 1.28 13.95 1.78 17.79-2.68 35.74 2.04 53.62 1.81-.34.52-1.03 1.56-1.37 2.08-20.37-1.34-39.96 3.89-58.79 11.25-4.95 1.76-8.8-.71-1.88-1.96 4.29.56 1.88-7.34 1.22-3.04-6.92 1.63-24.48.57-22.98-10.91-.64-3.95-4.82-4.67-8.11-5.05 3.01-4.19-2.97-5.66-6.28-5.06-5.36.91-10.4-.71-15.66-.84-3.03-.16-7.94.38-4.21-2.29z" fill="#397b40"/><path d="m426.53 427.36c5.26.13 10.3 1.75 15.66.84 3.31-.6 9.29.87 6.28 5.06 3.29.38 7.47 1.1 8.11 5.05-1.5 11.48 16.06 12.54 22.98 10.91.66-4.3 3.07 3.6-1.22 3.04-6.92 1.25-3.07 3.72 1.88 1.96-12.18 5.09-24.84 8.96-37.02 14.03-12.23-.64-23.58-5.68-35.43-8.29 7.28-3.69 13.95-8.92 22.28-9.98 4.72-2.72-4.48-4.41-6.61-5.97 4.38-1.28 9.04-2.94 2.29-4.99 7.99-1.12 6.48-8.4.8-11.66z" fill="#19673b"/><path d="m375.87 438.62c16.44-3.85 33.22 2.07 49.86.4 6.75 2.05 2.09 3.71-2.29 4.99-16.01-3.07-30.63 3.55-45.69 7.58-1.66.44-3.3.9-4.95 1.36 3.11-4.97 22.29-5.41 12.59-10.88-2.93-1.78-5.95-3.58-9.52-3.45z" fill="#1d376f"/><path d="m362.99 438.01 1.05-.07c2.97.18 5.91.72 8.85 1.18.4 1.93 3.81 5.49.45 6.21-15.74 3-31.85 1.13-47.53 4.91 4.24 4.3 13.05 6.24 9.22 13.67 1.57.12 4.69.36 6.25.48-4.51 1.94-8.92 4.16-13.57 5.75-3.62.58-6.97 2.12-10.43 3.26-10.97-.9-22.51-1.83-32.59-6.66 15.58.91 17.38-20.7 30.72-21.48 15.65-.04 31.34.84 46.95-.85 2.86-.59.33-4.39.63-6.4z" fill="#831979"/><path d="m372.89 439.12c.55-.09 1.63-.29 2.17-.38l.81-.12c3.57-.13 6.59 1.67 9.52 3.45 9.7 5.47-9.48 5.91-12.59 10.88-10.49 3.85-21.1 7.37-31.52 11.44-1.56-.12-4.68-.36-6.25-.48 3.83-7.43-4.98-9.37-9.22-13.67 15.68-3.78 31.79-1.91 47.53-4.91 3.36-.72-.05-4.28-.45-6.21z" fill="#541d86"/><path d="m82.61 443.64c2.15 2.07 4.11.75 4.99-1.7 1.65 3.97 7.45 2.65 10.62 3.93-9.98-1.71-17.11.73-18.51 10.7 2.99-.29 5.94-.79 8.94-.95 1.07 5.99-11.82 5.66-2.5 7.71-7.96 2.3-16.41 3.46-23.66 7.78-6.69-7.86-12.22-16.6-17.85-25.22 1.02-.44 2.05-.83 3.1-1.18 11.49 2 23.58.05 34.87-1.07z" fill="#305c9b"/><path d="m377.75 451.59c15.06-4.03 29.68-10.65 45.69-7.58 2.13 1.56 11.33 3.25 6.61 5.97-8.33 1.06-15 6.29-22.28 9.98-8.03-1.94-16.08.71-23.8 2.76-.27-4.63-1.23-9.58-6.22-11.13z" fill="#193a1f"/><path d="m480.22 454.22c18.83-7.36 38.42-12.59 58.79-11.25-2.21 3.59-4.18 7.34-6.64 10.77-3.19.38-8.82.8-8.9 5.06-10.86-.54-21.93.33-31.36 6.18-1.73 1.23-8.02 1.51-4.28 4.11-8.52.38-16.34 2.39-22.92 7.35-7.69-3.63-16.15-4.72-24.39-6.31.88-.64 1.78-1.26 2.68-1.88 12.18-5.07 24.84-8.94 37.02-14.03z" fill="#2c1536"/><path d="m149.84 446.54c3.39-.78 6.81-1.48 10.29-1.64 1.64-.06 4.9-.17 6.53-.23 3.26.2 6.47.31 9.74.55-1.62 3.24-10.91.45-5.32 3.71 3.44 4.83 14.87.22 13.7 6.64-3.64 9.15 9.64 7.99 15.58 6.66-4.71 3.65-11.24 2.73-16.54 5.16-5.51 1.66-10.32 4.96-15.77 6.77 5.05-4.48-2.57-5.99-5.98-7.24-4.7-1.42.86-10.05-4.76-11.17-6.21-.35-5.24-6.97-7.47-9.21z" fill="#5a9035"/><path d="m235.15 452.44c10.92-3.45 22.18-5.69 33.58-6.78.83.07 2.51.22 3.34.29-5.99 2.19 2.22 6.27-1.06 9.93-9.1 3.99-14.78 12.96-24.4 16.03-6.5-5.45-16.43-.73-22.27-7.08.25-3.14 1.73-6.24.75-9.36 3.35-1.01 6.72-1.98 10.06-3.03z" fill="#9e522b"/><path d="m142.13 447.37c2.57-.3 5.14-.58 7.71-.83 2.23 2.24 1.26 8.86 7.47 9.21 5.62 1.12.06 9.75 4.76 11.17 3.41 1.25 11.03 2.76 5.98 7.24-7.99 2.93-17.5.77-24.71 5.84-1.64-1.46-13.18 2.96-9.3-1.82 4.99-.12 4.38-5.17 6.21-7.79-5.19-5.92-5.11-13.96-7.39-20.61 3.07-.9 6.15-1.71 9.27-2.41z" fill="#469a66"/><path d="m102.83 457.58c10.04-2.49 20.08-4.99 30.03-7.8 2.28 6.65 2.2 14.69 7.39 20.61-1.83 2.62-1.22 7.67-6.21 7.79-5.33-2.34-9.16 2.76-11.57-2.26.58 7.98-9.17 5.45-13.27 9.31-9.08.63-18.33-2.12-27.15-4.49 1.53-8.69 18.49 2.18 16.4-8.24-4.86-6.4 6.98-14 4.38-14.92z" fill="#1e9d82"/><path d="m372.8 452.95c1.65-.46 3.29-.92 4.95-1.36 4.99 1.55 5.95 6.5 6.22 11.13l-.89.25c-8.97 3.06-16.92 8.81-26.84 9.26-9.51-.62-19.93 3.22-28.53-2.09 4.65-1.59 9.06-3.81 13.57-5.75 10.42-4.07 21.03-7.59 31.52-11.44z" fill="#55221e"/><path d="m523.47 458.8c.08-4.26 5.71-4.68 8.9-5.06-7.57 10.52-14.85 21.37-24.11 30.51-13.94-2.37-28.15-3.28-41.83-7.06-.38-.19-1.14-.56-1.52-.75 6.58-4.96 14.4-6.97 22.92-7.35-3.74-2.6 2.55-2.88 4.28-4.11 9.43-5.85 20.5-6.72 31.36-6.18z" fill="#46643b"/><path d="m200.36 462.23c7.9-3.44 16.3-5.22 24.73-6.76.98 3.12-.5 6.22-.75 9.36 5.84 6.35 15.77 1.63 22.27 7.08l-.22.8c-21.57 3.41-44.75 5.89-62.57-5.32 5.3-2.43 11.83-1.51 16.54-5.16z" fill="#a97e36"/><path d="m246.61 471.91c9.62-3.07 15.3-12.04 24.4-16.03 10.76-2.42 4.6 4.8.68 7.14 2.62 4.59 8.66 2.86 13 3.72 10.08 4.83 21.62 5.76 32.59 6.66-20.68 8-41.96 15.09-63.95 17.51-4.26-.57-8.55-.98-12.74-1.97 9.24.1 18.74-1.74 26.34-7.22-5.35-6.57-22.64 3.31-20.54-9.01z" fill="#984d5e"/><path d="m86.15 463.33c5.31-2.6 10.9-4.52 16.68-5.75 2.6.92-9.24 8.52-4.38 14.92 2.09 10.42-14.87-.45-16.4 8.24 8.82 2.37 18.07 5.12 27.15 4.49 4.1-3.86 13.85-1.33 13.27-9.31 2.41 5.02 6.24-.08 11.57 2.26-3.88 4.78 7.66.36 9.3 1.82 1.51 1.33 3.29 2.29 5.35 1.72 2.54.32 5.08.66 7.62 1.01-4.52 1.23-28.66-.76-12.04 2.61-10.04 3.56-19.27 1.33-29.51 4.06-14.02-1.98-27.61-7.36-41.98-6.27-3.69-3.78-7.08-7.83-10.29-12.02 7.25-4.32 15.7-5.48 23.66-7.78z" fill="#3f9b98"/><path d="m383.97 462.72c7.72-2.05 15.77-4.7 23.8-2.76 11.85 2.61 23.2 7.65 35.43 8.29-.9.62-1.8 1.24-2.68 1.88-14.59 3.91-28.82 9.15-43.16 13.89-1.67-1.97-4.75-4.12-1.45-6.18-8.24 1.85-18.86-.34-24.51-6.1 4.79-1.86 10.46-2.98 11.68-8.77z" fill="#335183"/><path d="m356.24 472.23c9.92-.45 17.87-6.2 26.84-9.26-1.22 5.79-6.89 6.91-11.68 8.77-14.23 9.95-33.8 9-48.2 18.48-11.96 2.11-24.54 1.75-35.54 7.4-1.94.39-6.16-.26-4.12 2.83 5.09 7.07 15.51 3.39 22.78 6.3-15.09 1.33-30.14-1.15-45.19.27-7.39-.34-14.6 1.41-21.92 1.95-2.26-.62-4.5-1.23-6.74-1.82 13.52-3.3 28.49 1.76 41.45-4.32-.98-.95-2.03-1.81-3.08-2.65 10.69 1.14 16.11-11.48 27.06-9.83 15.87 2.75 27.68-11.61 43.18-11.29 5.83.2 11.49-2.34 15.16-6.83z" fill="#743d63"/><path d="m168.05 474.16c5.45-1.81 10.26-5.11 15.77-6.77 17.82 11.21 41 8.73 62.57 5.32-2.1 12.32 15.19 2.44 20.54 9.01-7.6 5.48-17.1 7.32-26.34 7.22-30.4-3.11-60.97-10.94-91.9-7.22-2.06.57-3.84-.39-5.35-1.72 7.21-5.07 16.72-2.91 24.71-5.84z" fill="#9e845e"/><path d="m317.28 473.4c3.46-1.14 6.81-2.68 10.43-3.26 8.6 5.31 19.02 1.47 28.53 2.09-3.67 4.49-9.33 7.03-15.16 6.83-15.5-.32-27.31 14.04-43.18 11.29-10.95-1.65-16.37 10.97-27.06 9.83-15.7.75-31.72.88-47.29-1.07 7.36-.97 14.65-2.43 21.91-4.02 7.38.44 2.21-1.42-1.89-2.7 3.27.06 7.33 1.55 9.76-1.48 21.99-2.42 43.27-9.51 63.95-17.51z" fill="#794520"/><path d="m397.36 484.02c14.34-4.74 28.57-9.98 43.16-13.89 8.24 1.59 16.7 2.68 24.39 6.31.38.19 1.14.56 1.52.75-8.95 3.7-19.6.73-27.91 6.3-10.61 6.36-22.94 8.49-35.19 7.8-6.15 4.52-12.1 9.3-19.66 11.43-1.68.6-3.32 1.29-4.96 1.99-12.55 3.67-25.71-2.34-38.02 2.5-4.6-1.43-9.26-.68-13.87-.06-6.77-1.6-13.68-1.19-20.5-.4-7.27-2.91-17.69.77-22.78-6.3-2.04-3.09 2.18-2.44 4.12-2.83 25.18 2.21 51.24 2.07 75.78-4.26 10.19-6.23 23.48-3.61 33.92-9.34z" fill="#3c148f"/><path d="m323.2 490.22c14.4-9.48 33.97-8.53 48.2-18.48 5.65 5.76 16.27 7.95 24.51 6.1-3.3 2.06-.22 4.21 1.45 6.18-10.44 5.73-23.73 3.11-33.92 9.34-24.54 6.33-50.6 6.47-75.78 4.26 11-5.65 23.58-5.29 35.54-7.4z" fill="#684489"/><path d="m466.43 477.19c13.68 3.78 27.89 4.69 41.83 7.06-.23.28-.7.84-.93 1.12-40.91 9.38-81.88 14.28-123.66 17.35 7.56-2.13 13.51-6.91 19.66-11.43 12.25.69 24.58-1.44 35.19-7.8 8.31-5.57 18.96-2.6 27.91-6.3z" fill="#416e9c"/><path d="m148.69 481.72c30.93-3.72 61.5 4.11 91.9 7.22 4.19.99 8.48 1.4 12.74 1.97-2.43 3.03-6.49 1.54-9.76 1.48 4.1 1.28 9.27 3.14 1.89 2.7-14.22-4.33-29.09.97-43.48-2.2-17.46-4.28-35.47-2.6-52.81 1.13.23.52.7 1.56.94 2.08-.31.12-.91.35-1.22.46-4.47-.95-8.86-.11-13.06 1.39.84-.98 1.63-2 2.47-2.97 2.75-.23 6.57 1.33 8.08-1.72 26.9-8.28 54.44-1.14 81.55-1.39-20.32-7.87-48.01-9.58-71.62-9.14-2.54-.35-5.08-.69-7.62-1.01z" fill="#67735d"/><path d="m156.31 482.73c23.61-.44 51.3 1.27 71.62 9.14-27.11.25-54.65-6.89-81.55 1.39-10.54-1.22-21.23-1.61-31.62-3.86 10.24-2.73 19.47-.5 29.51-4.06-16.62-3.37 7.52-1.38 12.04-2.61z" fill="#227461"/><path d="m72.78 483.13c14.37-1.09 27.96 4.29 41.98 6.27 10.39 2.25 21.08 2.64 31.62 3.86-1.51 3.05-5.33 1.49-8.08 1.72-19.48-4.26-39.51-.43-58.79-4.07-2.39-2.46-4.49-5.19-6.73-7.78z" fill="#212b75"/><path d="m383.67 502.72c41.78-3.07 82.75-7.97 123.66-17.35-5.01 6.95-11.91 12.25-17.75 18.47-36.87 1.78-73.91 4.17-110.87.87 1.64-.7 3.28-1.39 4.96-1.99z" fill="#157b98"/><path d="m79.51 490.91c19.28 3.64 39.31-.19 58.79 4.07-.84.97-1.63 1.99-2.47 2.97-6.71 2.53-13.67 4.42-20.09 7.65-5.11 1.55-10.11 3.41-14.97 5.6-7.7-6.1-14.41-13.29-21.26-20.29z" fill="#269870"/><path d="m149.17 494.02c17.34-3.73 35.35-5.41 52.81-1.13 14.39 3.17 29.26-2.13 43.48 2.2-7.26 1.59-14.55 3.05-21.91 4.02-24.6 2.46-48.92-4.47-73.44-3.01-.24-.52-.71-1.56-.94-2.08z" fill="#a66f5e"/><path d="m150.11 496.1c24.52-1.46 48.84 5.47 73.44 3.01 15.57 1.95 31.59 1.82 47.29 1.07 1.05.84 2.1 1.7 3.08 2.65-12.96 6.08-27.93 1.02-41.45 4.32-12.25-3.57-25.24-4.47-37.48-.49-15.74-1.83-30.05-9.38-46.1-10.1.31-.11.91-.34 1.22-.46z" fill="#9b1d2a"/><path d="m135.83 497.95c4.2-1.5 8.59-2.34 13.06-1.39 16.05.72 30.36 8.27 46.1 10.1 12.24-3.98 25.23-3.08 37.48.49 2.24.59 4.48 1.2 6.74 1.82-12.98 2.19-25.74.98-38.77-1.37-25.07 2.69-50.33-1.94-75.45 1.48-3.39-.08-6.3-2.06-9.25-3.48 6.42-3.23 13.38-5.12 20.09-7.65z" fill="#ad8a54"/><path d="m378.71 504.71c36.96 3.3 74 .91 110.87-.87-1.59 1.7-3.31 3.26-5.24 4.56-18.33-5.13-37.09 6.42-54.89.13-17.85 2.04-36.71-2.24-55.29-1.34-11.06-.38-22.78 4.38-33.47.02 12.31-4.84 25.47 1.17 38.02-2.5z" fill="#4b7598"/><path d="m100.77 511.2c4.86-2.19 9.86-4.05 14.97-5.6 2.95 1.42 5.86 3.4 9.25 3.48 25.12-3.42 50.38 1.21 75.45-1.48 13.03 2.35 25.79 3.56 38.77 1.37 7.32-.54 14.53-2.29 21.92-1.95-2.3 2.11-4.49 5.8.23 3.31 4.21-3.52 2.8 2.86 3.21 5.13 4.13-.78 7.79.21 10.68 3.05 4.03-.88 8.68-2.53 10.04 2.54-13.35 5.33-27.58 8.59-39.91 16.11-9.68 1-18.16 5.45-24.27 12.95-7.17-7.15-18.45-.03-26.51 1.3-6.12-.48-10.15 4.77-14.06 8.74-9.24-3.59-18.33-7.64-26.84-12.73 14.01-11.17 36.28-17.09 42.56-35.19-20.27 8.65-41.65 14.74-61.45 24.3-12.12-7.33-23.31-16.12-34.04-25.33z" fill="#a09598"/><path d="m261.13 507.02c15.05-1.42 30.1 1.06 45.19-.27 6.82-.79 13.73-1.2 20.5.4 5.77 1.42 5.36 5.89 3.15 10.73 14.73-8.43 31.55-7.04 47.8-7.7 2.79 4.37 11.88-2.04 16.03 4.94 4.28 8.41 15.23 4.83 23.17 3.17 2.58 3.51-1.46 6.35-2.04 9.73 4.81-.8 13.18-3.5 12.91 4.05-3.26 6.95-15.06-.37-18.83 7.97-10.17-.09-18.85 10.39-29.4 6.29-4.48-6.37-14.47 3.67-14.01-5.19-6.95-1.59-10.29 6.85-16.39 3.25-4.27 6.93-13.05 8.18-20.39 8.96-5.05-.68-1.79-2.43 1.08-3.8-1.65-1.95-5.95-3.56-5.35.54-1.66 4.83-1.96-3.23-2.71-5.11-3.04 7.76-13.25 7.94-19.69 12.17-21.81 1.16-43.84 9.48-62.59 20.19-3.95-.59-7.85-1.5-11.75-2.31 7.35-12.94 22.31-16.27 32.78-25.57 15.16-12.68 39.27-17.72 47.07-37.13-7.47 2.65-15.02 5.58-22.37 8.72-1.36-5.07-6.01-3.42-10.04-2.54-2.89-2.84-6.55-3.83-10.68-3.05-.41-2.27 1-8.65-3.21-5.13-4.72 2.49-2.53-1.2-.23-3.31z" fill="#997f90"/><path d="m326.82 507.15c4.61-.62 9.27-1.37 13.87.06 10.69 4.36 22.41-.4 33.47-.02 18.58-.9 37.44 3.38 55.29 1.34 17.8 6.29 36.56-5.26 54.89-.13-32.73 29.68-72.78 50.78-115.1 63.05-4.91-2.81 6.88-3.86-.47-9.28-9.03 5.28-14.62-5.38-24.29-2.4-6.25.83-16.04.67-17.24 8.54-3.4 1.9-2.52-7.42-6.55-5.31-4.66-1.33-5.56 4.92-9.68 5-.45-2.54 2.65-7.22-1.04-7.98-5.63 1.02-10.96 6.16-16.72 2.66-8.32-4.4-16.38 1.42-24.08 4.27-8.7 3.13-17.63 5.99-25.46 11.03-1.39-.19-2.77-.4-4.15-.64 18.75-10.71 40.78-19.03 62.59-20.19 6.44-4.23 16.65-4.41 19.69-12.17.75 1.88 1.05 9.94 2.71 5.11-.6-4.1 3.7-2.49 5.35-.54-2.87 1.37-6.13 3.12-1.08 3.8 7.34-.78 16.12-2.03 20.39-8.96 6.1 3.6 9.44-4.84 16.39-3.25-.46 8.86 9.53-1.18 14.01 5.19 10.55 4.1 19.23-6.38 29.4-6.29 3.77-8.34 15.57-1.02 18.83-7.97.27-7.55-8.1-4.85-12.91-4.05.58-3.38 4.62-6.22 2.04-9.73-7.94 1.66-18.89 5.24-23.17-3.17-4.15-6.98-13.24-.57-16.03-4.94-16.25.66-33.07-.73-47.8 7.7 2.21-4.84 2.62-9.31-3.15-10.73z" fill="#817b90"/><path d="m134.81 536.53c19.8-9.56 41.18-15.65 61.45-24.3-6.28 18.1-28.55 24.02-42.56 35.19-6.38-3.48-12.84-6.85-18.89-10.89z" fill="#92679c"/><path d="m285.29 521.05c7.35-3.14 14.9-6.07 22.37-8.72-7.8 19.41-31.91 24.45-47.07 37.13-10.47 9.3-25.43 12.63-32.78 25.57-16.22-3.3-32.05-8.39-47.27-14.88 3.91-3.97 7.94-9.22 14.06-8.74 8.06-1.33 19.34-8.45 26.51-1.3 6.11-7.5 14.59-11.95 24.27-12.95 12.33-7.52 26.56-10.78 39.91-16.11z" fill="#6d7f90"/><path d="m344.48 559.77c9.67-2.98 15.26 7.68 24.29 2.4 7.35 5.42-4.44 6.47.47 9.28-20.51 5.63-41.55 8.91-62.73 10.55h-30.87c-10.48-2.15-21.41-1.75-31.93-4.02 7.83-5.04 16.76-7.9 25.46-11.03 7.7-2.85 15.76-8.67 24.08-4.27 5.76 3.5 11.09-1.64 16.72-2.66 3.69.76.59 5.44 1.04 7.98 4.12-.08 5.02-6.33 9.68-5 4.03-2.11 3.15 7.21 6.55 5.31 1.2-7.87 10.99-7.71 17.24-8.54z" fill="#616e80"/></svg>
