<svg width="20" height="20" viewBox="0 0 20 20" fill="none" xmlns="http://www.w3.org/2000/svg">
<g clip-path="url(#clip0)">
<path d="M6.36 20L9.456 11.6H10.524L13.608 20H12.54L11.772 17.84H8.196L7.416 20H6.36ZM8.496 17.024H11.472L9.984 12.872L8.496 17.024Z" fill="#EB5757"/>
<path d="M13.9557 18.8006L9.99029 10.7744L10.7251 9.99938L18.9427 13.541L18.2078 14.316L16.112 13.3871L13.6515 15.9821L14.6823 18.0343L13.9557 18.8006ZM13.2658 15.203L15.3134 13.0434L11.2766 11.2664L13.2658 15.203Z" fill="#EB5757"/>
<path d="M6.15932 18.8006L10.1248 10.7744L9.38995 9.99938L1.17239 13.541L1.90722 14.316L4.00309 13.3871L6.46353 15.9821L5.43275 18.0343L6.15932 18.8006ZM6.84926 15.203L4.80165 13.0434L8.83844 11.2664L6.84926 15.203Z" fill="#EB5757"/>
<path d="M6.36 0L9.456 8.4H10.524L13.608 0H12.54L11.772 2.16H8.196L7.416 0H6.36ZM8.496 2.976H11.472L9.984 7.128L8.496 2.976Z" fill="#EB5757"/>
<path d="M13.9557 1.19937L9.99029 9.2256L10.7251 10.0006L18.9427 6.45903L18.2078 5.68401L16.112 6.61287L13.6515 4.01787L14.6823 1.96568L13.9557 1.19937ZM13.2658 4.79701L15.3134 6.95661L11.2766 8.73356L13.2658 4.79701Z" fill="#EB5757"/>
<path d="M6.15932 1.19937L10.1248 9.2256L9.38995 10.0006L1.17239 6.45903L1.90722 5.68401L4.00309 6.61287L6.46353 4.01787L5.43275 1.96568L6.15932 1.19937ZM6.84926 4.79701L4.80165 6.95661L8.83844 8.73356L6.84926 4.79701Z" fill="#EB5757"/>
<path d="M20.0009 13.6709L11.6089 10.5533L11.6116 9.48527L20.0196 6.42293L20.0168 7.49092L17.8548 8.25335L17.8456 11.8293L20.0036 12.6149L20.0009 13.6709ZM17.0304 11.5272L17.0381 8.55125L12.8823 10.0285L17.0304 11.5272Z" fill="#EB5757"/>
<path d="M0.0196811 13.6709L8.41167 10.5533L8.40892 9.48527L0.00100142 6.42293L0.00375389 7.49092L2.16573 8.25335L2.17494 11.8293L0.0169596 12.6149L0.0196811 13.6709ZM2.99017 11.5272L2.9825 8.55125L7.13832 10.0285L2.99017 11.5272Z" fill="#EB5757"/>
</g>
<defs>
<clipPath id="clip0">
<rect width="20" height="20" fill="white"/>
</clipPath>
</defs>
</svg>
